<?xml version="1.0" encoding="UTF-8"?>
<!-- Generator: visioncortex VTracer 0.6.12 -->
<svg version="1.1" xmlns="http://www.w3.org/2000/svg" width="1467" height="1469">
<path d="M0 0 C2.615 1.565 5.243 3.102 7.879 4.631 C40 23.366 69.995 46.593 97.485 71.6 C99.568 73.482 101.683 75.318 103.813 77.146 C107.573 80.415 111.049 83.926 114.543 87.475 C116.487 89.387 118.473 91.149 120.563 92.896 C125.429 97.061 129.62 101.835 133.922 106.564 C136.076 108.928 138.278 111.221 140.563 113.459 C144.17 117.014 147.455 120.803 150.75 124.646 C151.658 125.69 152.565 126.733 153.473 127.775 C159.957 135.247 166.229 142.847 172.25 150.696 C173.274 152.027 174.303 153.355 175.336 154.679 C193.241 177.653 209.527 202.231 223.75 227.646 C224.268 228.566 224.786 229.485 225.32 230.432 C263.562 298.614 287.914 373.032 302.954 512.412 C302.956 513.138 302.959 513.864 302.962 514.612 C302.977 518.471 302.986 522.331 302.991 526.19 C302.995 529.292 303.009 532.394 303.032 535.496 C303.237 563.881 301.726 592.046 297.5 620.146 C297.449 620.494 297.449 620.494 297.191 622.253 C288.326 682.27 270.867 740.211 244.963 795.066 C243.86 797.414 242.778 799.771 241.708 802.135 C229.341 829.275 213.698 855.141 196.75 879.646 C196.249 880.373 195.748 881.1 195.231 881.848 C189.058 890.766 182.707 899.513 176.007 908.043 C174.699 909.712 173.402 911.39 172.106 913.068 C162.711 925.195 152.717 936.733 142.282 947.971 C141.129 949.232 139.99 950.505 138.858 951.784 C133.064 958.316 127.013 964.539 120.83 970.698 C119.183 972.339 117.542 973.986 115.901 975.633 C110.356 981.182 104.728 986.561 98.75 991.646 C97.143 993.101 95.538 994.559 93.938 996.021 C89.674 999.865 85.305 1003.54 80.84 1007.146 C78.591 1008.967 76.356 1010.799 74.129 1012.646 C59.582 1024.679 44.241 1035.404 28.563 1045.896 C27.94 1046.315 27.317 1046.733 26.675 1047.163 C17.534 1053.287 8.226 1059.056 -1.25 1064.646 C-2.108 1065.16 -2.966 1065.673 -3.85 1066.202 C-73.332 1107.679 -153.025 1134.463 -266.25 1147.646 C-267.439 1147.751 -268.628 1147.856 -269.853 1147.963 C-283.997 1149.029 -298.198 1148.892 -312.375 1148.896 C-313.073 1148.897 -313.772 1148.897 -314.492 1148.898 C-337.521 1148.905 -360.363 1148.398 -383.25 1145.646 C-383.979 1145.559 -384.709 1145.472 -385.461 1145.382 C-466.344 1135.597 -544.809 1110.896 -633.25 1060.646 C-634.093 1060.131 -634.936 1059.616 -635.804 1059.085 C-660.456 1043.945 -684.027 1027.169 -706.25 1008.646 C-706.829 1008.166 -707.409 1007.685 -708.006 1007.19 C-715.389 1001.062 -722.533 994.724 -729.56 988.192 C-730.821 987.039 -732.094 985.899 -733.374 984.767 C-740.063 978.838 -746.422 972.628 -752.728 966.299 C-754.442 964.579 -756.161 962.866 -757.88 961.152 C-763.552 955.485 -769.057 949.761 -774.25 943.646 C-775.704 942.039 -777.162 940.434 -778.625 938.834 C-783.355 933.585 -787.819 928.15 -792.25 922.646 C-793.175 921.513 -794.101 920.381 -795.027 919.248 C-802.215 910.415 -808.973 901.321 -815.557 892.031 C-817.282 889.6 -819.021 887.18 -820.761 884.76 C-828.355 874.13 -835.315 863.256 -841.89 851.969 C-843.14 849.834 -844.41 847.712 -845.691 845.596 C-886.581 777.772 -912.762 701.665 -928.25 593.646 C-928.361 592.567 -928.473 591.487 -928.588 590.375 C-936.14 514.208 -928.986 435.402 -804.25 156.646 C-803.764 156.01 -803.279 155.373 -802.779 154.717 C-793.805 142.986 -784.195 131.811 -774.265 120.881 C-772.375 118.786 -770.527 116.66 -768.687 114.521 C-765.754 111.149 -762.652 108 -759.437 104.896 C-757.528 102.933 -755.754 100.923 -753.972 98.846 C-750.438 94.78 -746.649 91.102 -742.687 87.459 C-741.995 86.818 -741.303 86.176 -740.591 85.515 C-739.169 84.197 -737.746 82.881 -736.322 81.566 C-734.366 79.755 -732.423 77.932 -730.484 76.104 C-724.497 70.47 -718.445 65.03 -712.023 59.889 C-709.466 57.821 -706.963 55.706 -704.468 53.565 C-697.934 47.966 -691.206 42.715 -684.25 37.646 C-683.594 37.165 -682.938 36.683 -682.262 36.186 C-658.959 19.071 -634.759 3.285 -609.25 -10.354 C-608.376 -10.821 -607.503 -11.289 -606.603 -11.771 C-527.927 -53.714 -442.219 -78.627 -353.25 -84.354 C-352.351 -84.411 -351.453 -84.469 -350.528 -84.529 C-267.851 -89.553 -184.347 -77.694 0 0 Z " fill="#E5E0EF" transform="translate(1047.24951171875,202.353515625)"/>
<path d="M0 0 C2.615 1.565 5.243 3.102 7.879 4.631 C40 23.366 69.995 46.593 97.485 71.6 C99.568 73.482 101.683 75.318 103.813 77.146 C107.573 80.415 111.049 83.926 114.543 87.475 C116.487 89.387 118.473 91.149 120.563 92.896 C125.429 97.061 129.62 101.835 133.922 106.564 C136.076 108.928 138.278 111.221 140.563 113.459 C144.17 117.014 147.455 120.803 150.75 124.646 C151.658 125.69 152.565 126.733 153.473 127.775 C159.957 135.247 166.229 142.847 172.25 150.696 C173.274 152.027 174.303 153.355 175.336 154.679 C193.241 177.653 209.527 202.231 223.75 227.646 C224.268 228.566 224.786 229.485 225.32 230.432 C263.562 298.614 287.914 373.032 302.954 512.412 C302.956 513.138 302.959 513.864 302.962 514.612 C302.977 518.471 302.986 522.331 302.991 526.19 C302.995 529.292 303.009 532.394 303.032 535.496 C303.237 563.881 301.726 592.046 297.5 620.146 C297.449 620.494 297.449 620.494 297.191 622.253 C288.326 682.27 270.867 740.211 244.963 795.066 C243.86 797.414 242.778 799.771 241.708 802.135 C229.341 829.275 213.698 855.141 196.75 879.646 C196.249 880.373 195.748 881.1 195.231 881.848 C189.058 890.766 182.707 899.513 176.007 908.043 C174.699 909.712 173.402 911.39 172.106 913.068 C162.711 925.195 152.717 936.733 142.282 947.971 C141.129 949.232 139.99 950.505 138.858 951.784 C133.064 958.316 127.013 964.539 120.83 970.698 C119.183 972.339 117.542 973.986 115.901 975.633 C110.356 981.182 104.728 986.561 98.75 991.646 C97.143 993.101 95.538 994.559 93.938 996.021 C89.674 999.865 85.305 1003.54 80.84 1007.146 C78.591 1008.967 76.356 1010.799 74.129 1012.646 C59.582 1024.679 44.241 1035.404 28.563 1045.896 C27.94 1046.315 27.317 1046.733 26.675 1047.163 C17.534 1053.287 8.226 1059.056 -1.25 1064.646 C-2.108 1065.16 -2.966 1065.673 -3.85 1066.202 C-73.332 1107.679 -153.025 1134.463 -266.25 1147.646 C-267.439 1147.751 -268.628 1147.856 -269.853 1147.963 C-283.997 1149.029 -298.198 1148.892 -312.375 1148.896 C-313.073 1148.897 -313.772 1148.897 -314.492 1148.898 C-337.521 1148.905 -360.363 1148.398 -383.25 1145.646 C-383.979 1145.559 -384.709 1145.472 -385.461 1145.382 C-466.344 1135.597 -544.809 1110.896 -633.25 1060.646 C-634.093 1060.131 -634.936 1059.616 -635.804 1059.085 C-660.456 1043.945 -684.027 1027.169 -706.25 1008.646 C-706.829 1008.166 -707.409 1007.685 -708.006 1007.19 C-715.389 1001.062 -722.533 994.724 -729.56 988.192 C-730.821 987.039 -732.094 985.899 -733.374 984.767 C-740.063 978.838 -746.422 972.628 -752.728 966.299 C-754.442 964.579 -756.161 962.866 -757.88 961.152 C-763.552 955.485 -769.057 949.761 -774.25 943.646 C-775.704 942.039 -777.162 940.434 -778.625 938.834 C-783.355 933.585 -787.819 928.15 -792.25 922.646 C-793.175 921.513 -794.101 920.381 -795.027 919.248 C-802.215 910.415 -808.973 901.321 -815.557 892.031 C-817.282 889.6 -819.021 887.18 -820.761 884.76 C-828.355 874.13 -835.315 863.256 -841.89 851.969 C-843.14 849.834 -844.41 847.712 -845.691 845.596 C-886.581 777.772 -912.762 701.665 -928.25 593.646 C-928.361 592.567 -928.473 591.487 -928.588 590.375 C-936.14 514.208 -928.986 435.402 -804.25 156.646 C-803.764 156.01 -803.279 155.373 -802.779 154.717 C-793.805 142.986 -784.195 131.811 -774.265 120.881 C-772.375 118.786 -770.527 116.66 -768.687 114.521 C-765.754 111.149 -762.652 108 -759.437 104.896 C-757.528 102.933 -755.754 100.923 -753.972 98.846 C-750.438 94.78 -746.649 91.102 -742.687 87.459 C-741.995 86.818 -741.303 86.176 -740.591 85.515 C-739.169 84.197 -737.746 82.881 -736.322 81.566 C-734.366 79.755 -732.423 77.932 -730.484 76.104 C-724.497 70.47 -718.445 65.03 -712.023 59.889 C-709.466 57.821 -706.963 55.706 -704.468 53.565 C-697.934 47.966 -691.206 42.715 -684.25 37.646 C-683.594 37.165 -682.938 36.683 -682.262 36.186 C-658.959 19.071 -634.759 3.285 -609.25 -10.354 C-608.376 -10.821 -607.503 -11.289 -606.603 -11.771 C-527.927 -53.714 -442.219 -78.627 -353.25 -84.354 C-352.351 -84.411 -351.453 -84.469 -350.528 -84.529 C-267.851 -89.553 -184.347 -77.694 0 0 Z M-413.25 -43.354 C-414.353 -43.155 -415.457 -42.956 -416.594 -42.752 C-423.843 -41.421 -431.049 -39.926 -438.25 -38.354 C-439.41 -38.104 -440.57 -37.854 -441.766 -37.597 C-460.604 -33.507 -478.947 -28.393 -497.25 -22.354 C-498.363 -21.99 -499.477 -21.626 -500.624 -21.252 C-565.651 0.088 -627.801 34.461 -680.492 78.193 C-683.019 80.283 -685.574 82.336 -688.125 84.396 C-692.421 87.913 -696.57 91.565 -700.667 95.311 C-702.776 97.218 -704.905 99.093 -707.05 100.959 C-720.215 112.459 -732.429 124.782 -744.25 137.646 C-745.218 138.69 -746.187 139.733 -747.156 140.775 C-751.886 145.907 -756.409 151.163 -760.789 156.596 C-762.582 158.819 -764.388 161.028 -766.21 163.229 C-785.228 186.261 -802.067 210.933 -817.25 236.646 C-817.707 237.414 -818.165 238.181 -818.636 238.971 C-860.637 309.611 -885.735 389.541 -894.437 471.084 C-894.479 471.479 -894.479 471.479 -894.694 473.48 C-896.705 492.403 -897.516 511.244 -897.562 530.271 C-897.565 531.318 -897.567 532.365 -897.57 533.444 C-897.579 566.249 -895.089 599.34 -889.25 631.646 C-889.164 632.134 -889.164 632.134 -888.732 634.604 C-879.999 683.837 -864.471 732.392 -843.25 777.646 C-842.824 778.567 -842.398 779.488 -841.959 780.437 C-834.776 795.945 -826.937 810.929 -818.25 825.646 C-817.679 826.614 -817.109 827.581 -816.522 828.577 C-796.711 862.016 -773.678 893.405 -747.51 922.15 C-746.11 923.697 -744.716 925.251 -743.336 926.817 C-737.295 933.648 -730.931 940.118 -724.474 946.552 C-722.683 948.338 -720.897 950.13 -719.111 951.922 C-713.327 957.71 -707.516 963.376 -701.25 968.646 C-700.155 969.596 -699.061 970.546 -697.968 971.498 C-663.808 1001.001 -626.924 1026.143 -587.25 1047.646 C-586.509 1048.051 -585.769 1048.455 -585.007 1048.872 C-506.402 1091.696 -416.375 1113.367 -265.25 1113.646 C-263.329 1113.5 -261.408 1113.354 -259.488 1113.209 C-237.461 1111.466 -215.7 1108.067 -194.138 1103.279 C-191.259 1102.649 -188.375 1102.051 -185.488 1101.463 C-147.338 1093.615 -109.863 1080.318 -74.25 1064.646 C-73.513 1064.327 -72.777 1064.007 -72.019 1063.678 C-67.698 1061.793 -63.462 1059.76 -59.25 1057.646 C-58.326 1057.186 -57.403 1056.726 -56.452 1056.251 C3.577 1026.162 56.861 986.522 104.313 939.209 C104.83 938.695 105.347 938.18 105.88 937.65 C111.723 931.83 117.417 925.944 122.75 919.646 C123.7 918.552 124.651 917.458 125.602 916.365 C183.788 848.993 225.88 770.246 260.203 637.752 C260.811 634.305 261.529 630.888 262.25 627.463 C263.926 619.174 264.926 610.865 265.813 602.459 C265.897 601.673 265.981 600.888 266.068 600.078 C266.575 595.313 267.064 590.547 267.538 585.779 C267.729 583.863 267.926 581.948 268.123 580.033 C272.959 531.696 270.496 481.4 261.75 433.646 C261.354 431.376 260.958 429.105 260.563 426.834 C257.027 406.829 252.461 387.354 246.452 367.953 C245.81 365.842 245.201 363.726 244.61 361.6 C235.516 328.989 221.827 297.885 206.75 267.646 C206.304 266.749 205.857 265.852 205.397 264.927 C187.639 229.523 165.497 195.878 140.204 165.404 C138.114 162.877 136.061 160.322 134 157.771 C130.416 153.393 126.686 149.172 122.875 144.99 C120.926 142.84 119.02 140.658 117.125 138.459 C114.38 135.302 111.484 132.358 108.5 129.428 C106.668 127.563 104.957 125.627 103.25 123.646 C98.143 117.742 92.629 112.488 86.719 107.396 C84.82 105.709 83.03 103.959 81.25 102.146 C77.588 98.435 73.716 95.03 69.75 91.646 C68.791 90.821 67.832 89.996 66.844 89.146 C58.988 82.417 50.97 75.925 42.75 69.646 C42.415 69.39 42.415 69.39 40.715 68.09 C-2.361 35.34 -49.851 8.34 -100.25 -11.354 C-101.456 -11.825 -102.662 -12.297 -103.905 -12.783 C-188.724 -45.618 -279.768 -57.04 -413.25 -43.354 Z " fill="#594DA1" transform="translate(1047.24951171875,202.353515625)"/>
<path d="M0 0 C2.517 -0.001 5.033 -0.002 7.55 -0.003 C13.473 -0.005 19.396 -0.001 25.319 0.004 C31.312 0.009 37.305 0.004 43.298 -0.001 C48.492 -0.005 53.686 -0.004 58.881 -0.001 C61.333 -0 63.785 -0.001 66.237 -0.003 C123.776 -0.047 175.427 5.494 218.844 47.133 C219.661 47.899 220.478 48.664 221.32 49.453 C252.981 79.938 266.956 123.363 270.844 166.133 C270.844 173.723 270.844 181.313 270.844 189.133 C113.104 189.133 -44.636 189.133 -207.156 189.133 C-207.156 167.544 -206.636 147.783 -201.156 127.133 C-200.945 126.33 -200.733 125.527 -200.516 124.7 C-188.78 81.025 -162.112 45.439 -123.093 22.464 C-109.847 14.886 -95.863 10.041 -81.156 6.133 C-80.053 5.834 -78.949 5.535 -77.812 5.227 C-67.576 2.742 -57.124 2.066 -46.638 1.367 C-44.335 1.212 -42.032 1.049 -39.73 0.877 C-26.488 -0.028 -13.268 -0.013 0 0 Z " fill="#E5E0EF" transform="translate(561.15625,837.8671875)"/>
<path d="M0 0 C0.338 0.311 0.338 0.311 2.047 1.887 C21.31 20.264 32.98 45.395 39 71 C39.247 72.027 39.495 73.055 39.75 74.113 C46.4 108.24 37.325 143.468 18.895 172.293 C13.074 180.53 6.216 187.969 -1 195 C-1.523 195.568 -2.047 196.137 -2.586 196.723 C-22.512 217.867 -53.689 231.624 -82.539 233.192 C-86.299 233.267 -90.052 233.278 -93.812 233.25 C-94.474 233.247 -95.135 233.243 -95.817 233.24 C-133.64 233.009 -167.292 217.749 -194 191 C-197.17 187.454 -200.11 183.775 -203 180 C-203.678 179.149 -204.356 178.298 -205.055 177.422 C-220.22 157.713 -230.046 130.971 -230.203 106.125 C-230.209 105.397 -230.215 104.67 -230.22 103.92 C-230.23 102.387 -230.236 100.855 -230.24 99.322 C-230.25 97.033 -230.281 94.745 -230.312 92.457 C-230.576 55.897 -213.499 23.7 -188.375 -2 C-168.098 -22.205 -142.431 -34.719 -114 -38 C-112.868 -38.142 -111.736 -38.284 -110.57 -38.43 C-68.839 -42.533 -30.289 -28.589 0 0 Z " fill="#594DA1" transform="translate(1015,506)"/>
<path d="M0 0 C4.545 0 9.089 -0.007 13.634 -0.021 C102.495 -0.282 102.495 -0.282 130.447 9.185 C131.827 9.613 133.207 10.037 134.588 10.459 C159.517 18.218 182.521 30.257 202.447 47.185 C203.266 47.875 204.084 48.565 204.928 49.275 C217.623 60.354 229.813 72.322 239.447 86.185 C240.167 87.21 240.886 88.235 241.627 89.291 C261.615 119.06 273.918 152.685 278.447 188.185 C278.493 188.536 278.493 188.536 278.726 190.308 C280.348 202.932 280.76 215.418 280.708 228.138 C280.697 231.248 280.708 234.358 280.721 237.469 C280.719 239.511 280.717 241.553 280.713 243.595 C280.717 244.493 280.721 245.39 280.725 246.315 C280.661 255.461 279.476 263.923 278.447 273.185 C93.977 273.185 -90.493 273.185 -280.553 273.185 C-281.159 264.094 -281.711 255.198 -281.721 246.119 C-281.724 245.038 -281.727 243.957 -281.731 242.844 C-281.736 240.578 -281.738 238.312 -281.738 236.045 C-281.74 232.654 -281.758 229.262 -281.777 225.871 C-281.826 207.63 -281.125 189.454 -277.303 171.56 C-277.087 170.524 -276.872 169.487 -276.65 168.419 C-269.114 133.3 -254.359 100.343 -230.553 73.185 C-229.837 72.36 -229.122 71.535 -228.385 70.685 C-218.637 59.644 -208.417 49.877 -196.553 41.185 C-195.986 40.769 -195.42 40.353 -194.836 39.925 C-136.807 -2.069 -68.307 -0.007 0 0 Z M-180.553 82.185 C-181.496 82.995 -182.44 83.804 -183.412 84.638 C-214.784 112.15 -234.297 152.79 -238.553 194.185 C-238.662 195.202 -238.772 196.219 -238.885 197.267 C-239.894 208.613 -239.553 219.715 -239.553 231.185 C-81.813 231.185 75.927 231.185 238.447 231.185 C238.447 194.013 233.257 160.054 215.447 127.185 C214.871 126.117 214.295 125.048 213.701 123.947 C206.828 111.709 198.077 101.295 188.447 91.185 C187.742 90.416 187.037 89.646 186.311 88.853 C156.352 57.183 113.187 44.284 70.865 42.633 C69.792 42.591 68.718 42.549 67.612 42.506 C55.328 42.061 43.047 42.021 30.756 42.017 C28.268 42.014 25.779 42.011 23.291 42.007 C18.113 42.001 12.936 41.999 7.759 42 C2.522 42 -2.715 41.993 -7.951 41.979 C-133.517 41.657 -133.517 41.657 -180.553 82.185 Z " fill="#594DA1" transform="translate(593.552734375,795.814697265625)"/>
<path d="M0 0 C0.643 0.129 1.285 0.258 1.947 0.391 C37.014 7.543 66.891 26.778 86.84 56.695 C87.553 57.786 88.266 58.876 89 60 C89.62 60.946 90.24 61.892 90.879 62.867 C107.877 90.323 112.225 125.006 105.191 156.238 C96.908 190.246 76.834 219.965 46.775 238.362 C17.205 255.699 -18.516 261.724 -52 254 C-53.237 253.733 -54.475 253.466 -55.75 253.191 C-76.572 248.228 -95.578 237.768 -111 223 C-111.505 222.608 -111.505 222.608 -114.062 220.625 C-131.6 204.953 -143.301 181.519 -149 159 C-149.26 158.007 -149.521 157.014 -149.789 155.991 C-151.882 147.304 -152.469 139.121 -152.391 130.241 C-152.375 128.067 -152.391 125.895 -152.41 123.721 C-152.463 89.928 -137.015 58.921 -113.625 35.125 C-97.117 18.92 -76.58 7.215 -54 2 C-52.73 1.696 -51.461 1.392 -50.152 1.078 C-33.559 -2.684 -16.736 -3.457 0 0 Z " fill="#E5E0EF" transform="translate(610,442)"/>
<path d="M0 0 C0.791 0.199 1.583 0.397 2.398 0.602 C33.5 8.686 59.919 23.767 83 46 C83.753 46.69 84.506 47.379 85.281 48.09 C116.467 77.525 132.65 120.858 134.262 162.965 C135.339 206.346 120.223 250.718 90.236 282.602 C89.299 283.582 88.359 284.558 87.417 285.532 C85.995 287.005 84.597 288.497 83.199 289.992 C71.262 302.555 57.373 312.111 42 320 C41.699 320.156 41.699 320.156 40.179 320.948 C0.121 341.548 -48.662 344.834 -91.551 331.527 C-134.883 317.116 -170.984 287.089 -191.839 246.354 C-200.402 228.99 -206.325 211.175 -209 192 C-209.096 191.338 -209.191 190.676 -209.29 189.994 C-215.106 144.918 -202.892 99.738 -175.343 63.722 C-159.276 43.123 -140.215 27.006 -117 15 C-116.398 14.686 -115.795 14.372 -115.174 14.048 C-99.502 5.99 -82.469 0.373 -65 -2 C-64.318 -2.093 -63.637 -2.186 -62.935 -2.281 C-42.829 -4.669 -19.692 -4.981 0 0 Z M-93 50 C-93.293 50.144 -93.293 50.144 -94.775 50.871 C-107.629 57.251 -118.551 65.132 -129 75 C-129.812 75.736 -130.624 76.472 -131.461 77.23 C-150.935 95.568 -161.417 120.364 -167 146 C-167.088 146.378 -167.088 146.378 -167.535 148.29 C-170.718 166.839 -168.943 188.285 -163 206 C-162.77 206.717 -162.54 207.435 -162.303 208.174 C-152.06 239.694 -130.293 266.264 -101.043 282.057 C-96.772 284.226 -92.417 286.147 -88 288 C-87.546 288.194 -87.546 288.194 -85.246 289.176 C-53.315 301.802 -16.931 299.118 14.5 286.562 C47.886 271.624 71.07 245.904 84.465 212.328 C96.189 179.686 94.93 144.124 80.181 112.712 C65.248 82.268 39.17 57.363 7 46 C-25.916 35.297 -61.194 34.352 -93 50 Z " fill="#594DA1" transform="translate(626,402)"/>
<path d="M0 0 C0.484 -0.001 0.484 -0.001 2.936 -0.009 C8.068 -0.023 13.201 -0.033 18.333 -0.037 C22.495 -0.041 26.657 -0.055 30.819 -0.078 C94.895 -0.422 153.532 6.837 201.793 53.203 C202.363 53.746 202.934 54.289 203.521 54.849 C235.285 85.233 254.196 125.436 262.793 168.203 C262.972 169.073 263.152 169.943 263.336 170.839 C266.11 185.011 266.074 199.318 266.105 213.703 C266.107 214.178 266.107 214.178 266.117 216.581 C266.192 253.818 266.192 253.818 255.918 264.641 C249.102 271.25 242.811 271.647 233.717 271.635 C232.497 271.646 231.277 271.656 230.02 271.666 C226.66 271.691 223.301 271.703 219.942 271.709 C216.359 271.719 212.777 271.745 209.194 271.769 C202.28 271.814 195.367 271.842 188.453 271.865 C180.516 271.892 172.58 271.935 164.644 271.979 C116.694 272.241 68.743 272.324 20.793 272.203 C20.793 258.343 20.793 244.483 20.793 230.203 C87.783 230.203 154.773 230.203 223.793 230.203 C222.5 182.354 222.5 182.354 218.043 165.203 C217.78 164.178 217.517 163.152 217.246 162.096 C213.431 147.62 207.916 134.354 200.793 121.203 C200.454 120.576 200.116 119.948 199.767 119.301 C180.329 83.851 148.161 59.852 109.75 48.488 C94.594 44.33 78.428 43.222 62.785 42.652 C61.656 42.611 60.527 42.569 59.364 42.526 C47.216 42.105 35.073 42.005 22.918 42.016 C21.781 42.016 20.644 42.016 19.472 42.016 C4.792 42.032 -9.86 42.228 -24.52 43.016 C-25.221 43.051 -25.922 43.085 -26.644 43.121 C-35.548 43.583 -44.061 44.775 -52.77 46.589 C-55.691 47.111 -58.255 47.332 -61.207 47.203 C-61.494 42.347 -61.779 37.491 -62.062 32.634 C-62.158 30.984 -62.255 29.335 -62.353 27.685 C-62.493 25.304 -62.632 22.924 -62.77 20.543 C-62.813 19.814 -62.857 19.084 -62.902 18.333 C-63.153 13.948 -63.247 9.595 -63.207 5.203 C-61.23 4.717 -59.25 4.24 -57.27 3.766 C-56.718 3.632 -56.718 3.632 -53.93 2.957 C-46.682 1.489 -39.346 1.009 -31.97 0.653 C-31.108 0.611 -30.246 0.569 -29.358 0.526 C-19.574 0.084 -9.793 0.02 0 0 Z " fill="#594DA1" transform="translate(872.20703125,796.796875)"/>
<path d="M0 0 C19.291 16.268 32.248 39.435 34.438 64.75 C35.902 90.339 29.472 114.105 12.392 133.535 C10.138 136.008 7.803 138.382 5.438 140.75 C4.647 141.552 3.857 142.354 3.043 143.18 C-13.493 159.03 -35.595 167.48 -58.312 168.188 C-86.459 167.525 -110.778 155.35 -130.254 135.297 C-147.533 116.234 -154.526 91.327 -153.694 66.08 C-152.456 44.206 -142.014 23.845 -127.562 7.75 C-127.256 7.403 -127.256 7.403 -125.707 5.645 C-116.504 -4.187 -105.007 -11.295 -92.562 -16.25 C-91.774 -16.566 -90.985 -16.882 -90.172 -17.207 C-59.837 -28.283 -24.689 -19.344 0 0 Z " fill="#E5E0EF" transform="translate(979.5625,530.25)"/>
</svg>
