<?xml version="1.0" encoding="UTF-8"?>
<!-- Generator: visioncortex VTracer 0.6.12 -->
<svg version="1.1" xmlns="http://www.w3.org/2000/svg" width="1467" height="1469">
<path d="M0 0 C0.675 0.439 1.35 0.879 2.045 1.332 C22.247 14.528 41.928 28.775 60.176 44.574 C62.842 46.864 65.563 49.061 68.312 51.25 C75.135 56.809 81.457 62.892 87.833 68.95 C90.063 71.06 92.309 73.153 94.559 75.242 C95.311 75.943 96.064 76.645 96.839 77.367 C98.275 78.704 99.712 80.038 101.153 81.369 C105.17 85.125 108.861 89.029 112.439 93.203 C114.358 95.412 116.4 97.463 118.5 99.5 C122.548 103.508 126.305 107.668 130 112 C130.904 113.041 131.809 114.081 132.715 115.121 C139.203 122.594 145.476 130.198 151.5 138.049 C152.524 139.381 153.553 140.708 154.586 142.033 C172.49 165.007 188.777 189.585 203 215 C203.518 215.919 204.036 216.838 204.569 217.785 C242.812 285.967 267.164 360.385 282.203 499.766 C282.206 500.491 282.209 501.217 282.212 501.965 C282.227 505.825 282.236 509.684 282.24 513.543 C282.245 516.645 282.258 519.747 282.281 522.849 C282.487 551.234 280.975 579.4 276.75 607.5 C276.699 607.848 276.699 607.848 276.44 609.607 C267.576 669.623 250.116 727.565 224.212 782.419 C223.109 784.768 222.028 787.125 220.957 789.488 C208.591 816.628 192.947 842.494 176 867 C175.499 867.727 174.997 868.453 174.481 869.202 C168.308 878.12 161.957 886.866 155.256 895.396 C153.948 897.066 152.651 898.743 151.355 900.422 C141.96 912.548 131.967 924.086 121.531 935.325 C120.379 936.586 119.24 937.859 118.107 939.138 C112.314 945.669 106.262 951.892 100.079 958.051 C98.433 959.692 96.791 961.339 95.15 962.986 C89.605 968.535 83.977 973.914 78 979 C76.392 980.454 74.788 981.912 73.188 983.375 C68.924 987.218 64.554 990.893 60.09 994.5 C57.84 996.32 55.605 998.152 53.379 1000 C38.831 1012.032 23.491 1022.758 7.812 1033.25 C7.189 1033.668 6.566 1034.086 5.924 1034.517 C-3.217 1040.641 -12.524 1046.41 -22 1052 C-22.858 1052.513 -23.717 1053.027 -24.601 1053.556 C-94.082 1095.033 -173.775 1121.817 -287 1135 C-288.189 1135.105 -289.378 1135.209 -290.603 1135.317 C-304.748 1136.382 -318.948 1136.246 -333.125 1136.25 C-333.824 1136.25 -334.522 1136.251 -335.242 1136.251 C-358.271 1136.259 -381.113 1135.752 -404 1133 C-404.73 1132.913 -405.46 1132.826 -406.211 1132.736 C-487.094 1122.951 -565.559 1098.249 -654 1048 C-654.843 1047.485 -655.686 1046.97 -656.555 1046.439 C-690.36 1025.677 -721.683 1001.692 -751 975 C-751.875 974.21 -752.749 973.42 -753.651 972.606 C-760.683 966.221 -767.499 959.658 -774.202 952.928 C-775.826 951.299 -777.454 949.676 -779.084 948.053 C-784.6 942.54 -789.943 936.941 -795 931 C-796.454 929.392 -797.912 927.788 -799.375 926.188 C-804.106 920.938 -808.57 915.504 -813 910 C-813.925 908.867 -814.851 907.734 -815.777 906.602 C-822.965 897.769 -829.724 888.675 -836.307 879.384 C-838.033 876.954 -839.772 874.534 -841.512 872.113 C-849.106 861.483 -856.065 850.61 -862.64 839.323 C-863.89 837.187 -865.16 835.066 -866.441 832.949 C-907.331 765.125 -933.512 689.019 -949 581 C-949.112 579.92 -949.224 578.84 -949.339 577.728 C-956.89 501.561 -949.737 422.755 -825 144 C-824.515 143.363 -824.03 142.726 -823.53 142.07 C-814.555 130.34 -804.945 119.164 -795.016 108.234 C-793.126 106.139 -791.278 104.014 -789.438 101.875 C-786.505 98.502 -783.402 95.354 -780.188 92.25 C-778.279 90.287 -776.504 88.276 -774.723 86.199 C-771.189 82.133 -767.4 78.456 -763.438 74.812 C-762.746 74.171 -762.054 73.53 -761.341 72.869 C-759.919 71.551 -758.497 70.234 -757.072 68.919 C-755.117 67.108 -753.173 65.286 -751.234 63.457 C-745.248 57.823 -739.195 52.383 -732.773 47.242 C-730.216 45.175 -727.713 43.06 -725.218 40.919 C-718.684 35.32 -711.956 30.068 -705 25 C-704.344 24.518 -703.688 24.036 -703.012 23.54 C-679.71 6.424 -655.51 -9.361 -630 -23 C-629.126 -23.468 -628.253 -23.935 -627.353 -24.417 C-548.678 -66.361 -462.97 -91.274 -374 -97 C-373.102 -97.058 -372.204 -97.116 -371.278 -97.175 C-288.601 -102.199 -205.097 -90.341 0 0 Z " fill="none" transform="translate(1068,215)"/>
<path d="M0 0 C0.531 0.003 0.531 0.003 3.22 0.021 C20.244 0.133 36.964 0.836 53.812 3.438 C54.366 3.521 54.366 3.521 57.169 3.941 C74.793 6.671 91.827 11.042 108.812 16.438 C109.469 16.646 110.125 16.854 110.801 17.068 C133.974 24.458 156.638 33.138 179.298 41.953 C220.239 57.879 261.944 73.957 305.812 79.438 C306.589 79.54 307.365 79.643 308.166 79.75 C334.243 83.096 361.939 83.198 387.812 78.438 C388.162 78.373 388.162 78.373 389.931 78.049 C397.336 76.689 404.736 75.307 412.125 73.863 C412.903 73.711 413.681 73.56 414.482 73.404 C415.939 73.119 417.396 72.831 418.852 72.541 C445.093 67.407 445.093 67.407 454.062 73 C457.756 75.726 460.304 79.113 461.812 83.438 C462.269 87.81 462.235 92.145 462.144 96.534 C462.096 98.858 462.073 101.181 462.056 103.506 C462.028 106.901 461.989 110.296 461.943 113.691 C461.82 122.965 461.781 132.24 461.754 141.516 C461.751 142.486 461.748 143.456 461.744 144.455 C461.689 166.278 462.396 188.059 463.204 209.864 C464.243 238.036 465.126 266.182 465.124 294.375 C465.125 296.447 465.129 298.518 465.135 300.589 C465.245 374.789 465.245 374.789 442.688 399.062 C412.043 428.397 362.354 431.258 322.508 430.68 C272.459 429.403 228.502 414.251 183.625 393.312 C146.166 375.872 107.839 362.795 66.938 356.75 C66.54 356.69 66.54 356.69 64.53 356.388 C51.712 354.584 38.803 354.229 25.875 354.25 C25.162 354.251 24.449 354.251 23.715 354.252 C-8.53 354.325 -38.578 359.61 -69.173 369.558 C-74.983 371.438 -74.983 371.438 -77.188 371.438 C-77.203 347.281 -77.199 323.124 -77.189 298.968 C-77.187 295.311 -77.186 291.654 -77.185 287.997 C-77.173 253.844 -77.138 219.691 -77.061 185.538 C-77.052 181.67 -77.043 177.801 -77.035 173.933 C-77.033 173.164 -77.032 172.396 -77.03 171.604 C-77.003 158.966 -76.994 146.328 -76.991 133.689 C-76.988 120.552 -76.967 107.414 -76.927 94.276 C-76.903 86.247 -76.894 78.218 -76.904 70.188 C-76.91 64.09 -76.89 57.992 -76.859 51.893 C-76.851 49.4 -76.851 46.907 -76.861 44.414 C-76.873 41.014 -76.853 37.615 -76.827 34.214 C-76.837 33.231 -76.848 32.248 -76.859 31.235 C-76.764 24.754 -75.344 20.467 -71.188 15.438 C-68.164 12.824 -64.775 11.181 -61.188 9.438 C-60.298 8.995 -59.409 8.553 -58.492 8.098 C-40.35 0.139 -19.475 -0.233 0 0 Z " fill="none" transform="translate(578.1875,434.5625)"/>
<path d="M0 0 C0.675 0.439 1.35 0.879 2.045 1.332 C22.247 14.528 41.928 28.775 60.176 44.574 C62.842 46.864 65.563 49.061 68.312 51.25 C75.135 56.809 81.457 62.892 87.833 68.95 C90.063 71.06 92.309 73.153 94.559 75.242 C95.311 75.943 96.064 76.645 96.839 77.367 C98.275 78.704 99.712 80.038 101.153 81.369 C105.17 85.125 108.861 89.029 112.439 93.203 C114.358 95.412 116.4 97.463 118.5 99.5 C122.548 103.508 126.305 107.668 130 112 C130.904 113.041 131.809 114.081 132.715 115.121 C139.203 122.594 145.476 130.198 151.5 138.049 C152.524 139.381 153.553 140.708 154.586 142.033 C172.49 165.007 188.777 189.585 203 215 C203.518 215.919 204.036 216.838 204.569 217.785 C242.812 285.967 267.164 360.385 282.203 499.766 C282.206 500.491 282.209 501.217 282.212 501.965 C282.227 505.825 282.236 509.684 282.24 513.543 C282.245 516.645 282.258 519.747 282.281 522.849 C282.487 551.234 280.975 579.4 276.75 607.5 C276.699 607.848 276.699 607.848 276.44 609.607 C267.576 669.623 250.116 727.565 224.212 782.419 C223.109 784.768 222.028 787.125 220.957 789.488 C208.591 816.628 192.947 842.494 176 867 C175.499 867.727 174.997 868.453 174.481 869.202 C168.308 878.12 161.957 886.866 155.256 895.396 C153.948 897.066 152.651 898.743 151.355 900.422 C141.96 912.548 131.967 924.086 121.531 935.325 C120.379 936.586 119.24 937.859 118.107 939.138 C112.314 945.669 106.262 951.892 100.079 958.051 C98.433 959.692 96.791 961.339 95.15 962.986 C89.605 968.535 83.977 973.914 78 979 C76.392 980.454 74.788 981.912 73.188 983.375 C68.924 987.218 64.554 990.893 60.09 994.5 C57.84 996.32 55.605 998.152 53.379 1000 C38.831 1012.032 23.491 1022.758 7.812 1033.25 C7.189 1033.668 6.566 1034.086 5.924 1034.517 C-3.217 1040.641 -12.524 1046.41 -22 1052 C-22.858 1052.513 -23.717 1053.027 -24.601 1053.556 C-94.082 1095.033 -173.775 1121.817 -287 1135 C-288.189 1135.105 -289.378 1135.209 -290.603 1135.317 C-304.748 1136.382 -318.948 1136.246 -333.125 1136.25 C-333.824 1136.25 -334.522 1136.251 -335.242 1136.251 C-358.271 1136.259 -381.113 1135.752 -404 1133 C-404.73 1132.913 -405.46 1132.826 -406.211 1132.736 C-487.094 1122.951 -565.559 1098.249 -654 1048 C-654.843 1047.485 -655.686 1046.97 -656.555 1046.439 C-690.36 1025.677 -721.683 1001.692 -751 975 C-751.875 974.21 -752.749 973.42 -753.651 972.606 C-760.683 966.221 -767.499 959.658 -774.202 952.928 C-775.826 951.299 -777.454 949.676 -779.084 948.053 C-784.6 942.54 -789.943 936.941 -795 931 C-796.454 929.392 -797.912 927.788 -799.375 926.188 C-804.106 920.938 -808.57 915.504 -813 910 C-813.925 908.867 -814.851 907.734 -815.777 906.602 C-822.965 897.769 -829.724 888.675 -836.307 879.384 C-838.033 876.954 -839.772 874.534 -841.512 872.113 C-849.106 861.483 -856.065 850.61 -862.64 839.323 C-863.89 837.187 -865.16 835.066 -866.441 832.949 C-907.331 765.125 -933.512 689.019 -949 581 C-949.112 579.92 -949.224 578.84 -949.339 577.728 C-956.89 501.561 -949.737 422.755 -825 144 C-824.515 143.363 -824.03 142.726 -823.53 142.07 C-814.555 130.34 -804.945 119.164 -795.016 108.234 C-793.126 106.139 -791.278 104.014 -789.438 101.875 C-786.505 98.502 -783.402 95.354 -780.188 92.25 C-778.279 90.287 -776.504 88.276 -774.723 86.199 C-771.189 82.133 -767.4 78.456 -763.438 74.812 C-762.746 74.171 -762.054 73.53 -761.341 72.869 C-759.919 71.551 -758.497 70.234 -757.072 68.919 C-755.117 67.108 -753.173 65.286 -751.234 63.457 C-745.248 57.823 -739.195 52.383 -732.773 47.242 C-730.216 45.175 -727.713 43.06 -725.218 40.919 C-718.684 35.32 -711.956 30.068 -705 25 C-704.344 24.518 -703.688 24.036 -703.012 23.54 C-679.71 6.424 -655.51 -9.361 -630 -23 C-629.126 -23.468 -628.253 -23.935 -627.353 -24.417 C-548.678 -66.361 -462.97 -91.274 -374 -97 C-373.102 -97.058 -372.204 -97.116 -371.278 -97.175 C-288.601 -102.199 -205.097 -90.341 0 0 Z M-563 -18 C-563.423 -17.82 -563.423 -17.82 -565.563 -16.906 C-614.439 3.981 -661.231 31.811 -702 66 C-703.833 67.48 -705.666 68.959 -707.5 70.438 C-712.212 74.289 -716.73 78.316 -721.199 82.445 C-723.388 84.442 -725.597 86.4 -727.832 88.344 C-740.323 99.245 -752.001 110.873 -763.222 123.069 C-764.85 124.837 -766.487 126.596 -768.129 128.352 C-773.145 133.736 -777.959 139.245 -782.57 144.98 C-784.362 147.207 -786.167 149.415 -787.992 151.613 C-816.944 186.608 -841.414 226.064 -861 267 C-861.443 267.922 -861.886 268.844 -862.343 269.794 C-884.228 315.567 -899.681 364.151 -909 414 C-909.19 415.017 -909.381 416.035 -909.577 417.083 C-912.082 430.793 -913.713 444.586 -915.188 458.438 C-915.272 459.228 -915.357 460.018 -915.445 460.832 C-917.456 479.756 -918.266 498.597 -918.312 517.625 C-918.315 518.672 -918.318 519.719 -918.32 520.797 C-918.329 553.592 -915.868 586.706 -910 619 C-909.824 619.987 -909.648 620.973 -909.466 621.99 C-897.187 689.665 -873.269 755.867 -838 815 C-837.477 815.878 -836.955 816.755 -836.416 817.66 C-824.713 837.183 -811.917 855.989 -798 874 C-797.771 874.299 -797.771 874.299 -796.611 875.81 C-787.655 887.465 -778.156 898.634 -768.261 909.504 C-766.86 911.05 -765.467 912.605 -764.087 914.17 C-758.045 921.001 -751.682 927.472 -745.225 933.906 C-743.433 935.692 -741.647 937.483 -739.861 939.275 C-734.076 945.064 -728.256 950.716 -722 956 C-720.808 957.045 -719.618 958.092 -718.43 959.141 C-710.789 965.839 -703.032 972.324 -694.961 978.499 C-693.596 979.544 -692.234 980.593 -690.875 981.646 C-664.801 1001.818 -636.967 1019.301 -608 1035 C-607.26 1035.404 -606.52 1035.809 -605.757 1036.225 C-534.792 1074.887 -453.522 1096.87 -373 1102 C-371.465 1102.112 -369.93 1102.224 -368.395 1102.336 C-340.964 1104.17 -313.364 1103.29 -286 1101 C-284.079 1100.853 -282.159 1100.707 -280.238 1100.562 C-258.279 1098.825 -236.563 1095.465 -215.069 1090.675 C-211.857 1089.968 -208.638 1089.297 -205.418 1088.629 C-189.624 1085.31 -174.321 1081.058 -159 1076 C-157.64 1075.554 -156.28 1075.109 -154.919 1074.663 C-134.558 1067.972 -114.648 1060.575 -95 1052 C-94.255 1051.678 -93.51 1051.355 -92.743 1051.023 C-88.431 1049.141 -84.204 1047.11 -80 1045 C-79.077 1044.54 -78.153 1044.079 -77.202 1043.605 C-37.458 1023.683 0.012 999.802 34.268 971.428 C36.743 969.387 39.25 967.386 41.75 965.375 C46.667 961.353 51.334 957.102 55.98 952.773 C58.102 950.8 60.278 948.912 62.484 947.035 C68.316 941.952 73.724 936.425 79.182 930.948 C81.058 929.067 82.94 927.19 84.822 925.314 C90.762 919.379 96.585 913.425 102 907 C103.045 905.808 104.091 904.618 105.141 903.43 C111.843 895.785 118.33 888.023 124.507 879.948 C125.538 878.603 126.574 877.261 127.614 875.923 C144.759 853.841 160.337 830.391 174 806 C174.558 805.006 175.117 804.013 175.692 802.989 C202.66 754.717 222.276 702.757 235 649 C235.221 648.09 235.442 647.181 235.669 646.244 C236.969 640.859 238.028 635.453 239 630 C239.111 629.392 239.111 629.392 239.674 626.314 C252.926 553.151 252.839 477.895 238 405 C237.885 404.423 237.885 404.423 237.305 401.505 C234.198 385.95 230.439 370.749 225.783 355.586 C225.092 353.303 224.433 351.014 223.797 348.715 C204.107 277.842 166.38 209.297 119.453 152.757 C117.364 150.231 115.31 147.675 113.25 145.125 C109.733 140.829 106.082 136.679 102.336 132.582 C100.428 130.473 98.553 128.345 96.688 126.199 C85.77 113.702 74.139 102.01 61.931 90.778 C60.163 89.15 58.404 87.513 56.648 85.871 C51.264 80.855 45.755 76.041 40.02 71.43 C37.793 69.638 35.585 67.833 33.387 66.008 C0.57 38.856 -35.975 16.066 -74 -3 C-74.991 -3.497 -75.982 -3.995 -77.002 -4.507 C-112.909 -22.412 -150.346 -35.535 -189 -46 C-189.567 -46.155 -189.567 -46.155 -192.439 -46.938 C-208.461 -51.267 -224.626 -54.334 -241 -57 C-242.086 -57.183 -243.173 -57.366 -244.292 -57.555 C-329.714 -71.805 -420.416 -65.271 -563 -18 Z " fill="#8D61AA" transform="translate(1068,215)"/>
<path d="M0 0 C1.019 0.002 2.037 0.004 3.087 0.006 C19.857 0.056 36.264 0.852 52.875 3.312 C53.492 3.401 53.492 3.401 56.616 3.849 C73.343 6.291 89.655 9.551 105.875 14.312 C106.939 14.621 108.003 14.93 109.099 15.249 C138.133 23.756 166.368 34.465 194.504 45.534 C208.546 51.057 222.634 56.357 236.898 61.284 C239.738 62.265 242.572 63.263 245.406 64.262 C261.739 69.944 278.443 74.086 295.375 77.562 C296.102 77.714 296.829 77.865 297.578 78.02 C312.127 80.879 326.521 81.783 341.312 81.812 C341.777 81.814 341.777 81.814 344.13 81.824 C361.016 81.834 376.8 79.821 393.259 76.118 C397.14 75.254 401.03 74.46 404.93 73.688 C405.525 73.57 405.525 73.57 408.539 72.973 C409.64 72.755 410.741 72.537 411.875 72.312 C412.399 72.205 412.399 72.205 415.049 71.661 C435.431 67.615 456.267 68.986 474.355 79.59 C478.954 82.734 482.936 86.387 486.875 90.312 C487.231 90.657 487.231 90.657 489.031 92.398 C498.499 102.194 505.219 116.595 505.215 130.339 C505.199 131.161 505.184 131.983 505.168 132.829 C505.164 133.73 505.159 134.631 505.155 135.558 C505.144 137.51 505.125 139.462 505.101 141.413 C505.062 144.568 505.041 147.722 505.025 150.877 C505 155.422 504.968 159.967 504.93 164.512 C504.832 176.557 504.796 188.603 504.781 200.648 C504.78 201.864 504.778 203.08 504.776 204.333 C504.76 226.954 505.336 249.523 506.267 272.124 C506.586 279.865 506.892 287.606 507.195 295.348 C507.227 296.162 507.259 296.977 507.292 297.816 C508.558 330.369 509.044 363.057 506.562 395.562 C506.504 396.334 506.445 397.106 506.385 397.902 C503.948 428.486 494.095 453.771 472.875 476.312 C472.606 476.614 472.606 476.614 471.242 478.141 C439.887 511.86 386.223 520.141 342.625 522.062 C274.594 524.365 215.027 506.249 153.923 477.669 C127.984 465.542 100.216 454.933 71.875 450.312 C71.325 450.217 71.325 450.217 68.542 449.736 C37.041 444.424 3.202 443.266 -27.987 450.932 C-30.4 451.361 -32.678 451.337 -35.125 451.312 C-35.123 451.945 -35.121 452.577 -35.119 453.229 C-35.007 490.731 -34.922 528.234 -34.87 565.737 C-34.863 570.243 -34.857 574.748 -34.85 579.254 C-34.849 580.151 -34.848 581.048 -34.846 581.973 C-34.825 596.485 -34.785 610.998 -34.739 625.51 C-34.692 640.408 -34.665 655.306 -34.655 670.205 C-34.648 679.393 -34.626 688.581 -34.585 697.769 C-34.559 704.075 -34.551 710.381 -34.557 716.688 C-34.561 720.323 -34.556 723.957 -34.529 727.592 C-34.5 731.542 -34.51 735.492 -34.524 739.442 C-34.509 740.579 -34.495 741.715 -34.48 742.885 C-34.588 754.586 -38.871 764.949 -47.125 773.312 C-57.289 782.194 -68.605 786.705 -82.094 786.523 C-94.099 785.688 -104.532 780.714 -113.125 772.312 C-118.454 765.871 -121.75 759.306 -124.125 751.312 C-124.303 750.746 -124.481 750.18 -124.664 749.597 C-125.294 746.475 -125.236 743.502 -125.223 740.317 C-125.221 739.618 -125.22 738.92 -125.218 738.2 C-125.214 736.679 -125.208 735.157 -125.2 733.636 C-125.187 731.185 -125.181 728.733 -125.176 726.282 C-125.163 720.159 -125.139 714.037 -125.115 707.915 C-125.094 702.786 -125.079 697.656 -125.069 692.527 C-125.063 690.192 -125.05 687.856 -125.037 685.521 C-125.011 677.65 -125.096 669.792 -125.347 661.925 C-126.38 629.457 -126.272 596.985 -126.26 564.504 C-126.258 558.243 -126.258 551.981 -126.26 545.72 C-126.26 544.812 -126.26 543.905 -126.26 542.97 C-126.261 541.122 -126.261 539.273 -126.262 537.425 C-126.267 516.023 -126.261 494.621 -126.253 473.219 C-126.251 466.198 -126.248 459.178 -126.247 452.157 C-126.231 396.154 -126.193 340.151 -126.133 284.148 C-126.127 278.24 -126.121 272.332 -126.115 266.424 C-126.08 230.48 -126.022 194.535 -125.904 158.59 C-125.88 150.767 -125.865 142.944 -125.855 135.121 C-125.842 125.806 -125.816 116.491 -125.771 107.176 C-125.748 102.57 -125.732 97.965 -125.733 93.359 C-125.734 89.233 -125.716 85.107 -125.684 80.981 C-125.675 79.513 -125.674 78.044 -125.679 76.576 C-125.738 59.073 -120.593 44.409 -108.461 31.652 C-107.69 30.88 -106.919 30.108 -106.125 29.312 C-105.437 28.613 -104.748 27.913 -104.039 27.191 C-86.242 10.221 -59.256 3.149 -35.387 1.191 C-34.398 1.109 -33.409 1.026 -32.391 0.941 C-21.596 0.102 -10.823 -0.041 0 0 Z M-64.125 55.312 C-64.59 55.539 -64.59 55.539 -66.945 56.684 C-72.863 59.867 -76.325 63.141 -79.125 69.312 C-79.813 72.916 -79.804 76.428 -79.764 80.089 C-79.773 81.153 -79.781 82.217 -79.79 83.313 C-79.811 86.87 -79.798 90.426 -79.784 93.983 C-79.793 96.541 -79.804 99.099 -79.816 101.656 C-79.839 107.174 -79.846 112.691 -79.839 118.209 C-79.829 126.269 -79.847 134.329 -79.871 142.388 C-79.91 155.576 -79.927 168.764 -79.929 181.952 C-79.932 194.571 -79.945 207.189 -79.972 219.808 C-79.974 220.576 -79.976 221.344 -79.977 222.135 C-79.986 225.998 -79.995 229.861 -80.003 233.724 C-80.081 268.364 -80.112 303.005 -80.124 337.645 C-80.125 341.185 -80.126 344.724 -80.128 348.264 C-80.137 371.28 -80.14 394.296 -80.125 417.312 C-78.383 416.84 -76.642 416.366 -74.9 415.893 C-74.415 415.761 -74.415 415.761 -71.962 415.094 C-68.168 414.049 -64.395 412.939 -60.625 411.812 C-21.397 400.097 20.233 396.969 60.875 402.312 C61.901 402.447 62.928 402.581 63.985 402.719 C107.084 408.526 146.372 423.319 185.62 441.608 C252.795 472.76 332.617 491.522 404.988 465.23 C426.155 457.13 443.698 445.067 454.312 424.531 C464.733 400.962 462.105 370.247 462.123 345.06 C462.124 343.631 462.126 342.203 462.129 340.775 C462.175 311.421 461.252 282.123 460.155 252.792 C459.343 231.007 458.749 209.263 458.887 187.461 C458.889 186.983 458.889 186.983 458.903 184.563 C458.954 175.408 459.033 166.254 459.206 157.101 C459.263 153.793 459.297 150.486 459.326 147.178 C459.345 145.659 459.376 144.139 459.418 142.62 C459.666 133.728 459.241 127.066 452.875 120.312 C447.611 115.621 441.953 115.573 435.098 115.855 C421.162 116.845 407.328 119.938 393.609 122.465 C392.654 122.64 391.698 122.816 390.713 122.997 C389.001 123.314 387.29 123.637 385.58 123.968 C371.581 126.611 357.962 127.659 343.75 127.562 C342.943 127.56 342.136 127.557 341.305 127.554 C328.403 127.502 315.68 126.973 302.875 125.312 C302.161 125.232 301.447 125.151 300.711 125.068 C256.963 120.104 214.667 102.806 173.973 86.982 C146.771 76.408 119.484 66.277 91.458 58.072 C89.298 57.437 87.146 56.78 84.996 56.113 C76.561 53.64 67.968 52.172 59.312 50.688 C58.124 50.481 56.936 50.275 55.712 50.062 C37.422 47.054 19.12 45.939 0.599 45.942 C-2.492 45.938 -5.581 45.901 -8.672 45.863 C-27.228 45.76 -47.23 46.914 -64.125 55.312 Z " fill="#8D61AA" transform="translate(581.125,388.6875)"/>
</svg>
