<?xml version="1.0" encoding="UTF-8"?>
<!-- Generator: visioncortex VTracer 0.6.12 -->
<svg version="1.1" xmlns="http://www.w3.org/2000/svg" width="1467" height="1469">
<path d="M0 0 C0.675 0.439 1.35 0.879 2.045 1.332 C22.247 14.528 41.928 28.775 60.176 44.574 C62.842 46.864 65.563 49.061 68.312 51.25 C75.135 56.809 81.457 62.892 87.833 68.95 C90.063 71.06 92.309 73.153 94.559 75.242 C95.311 75.943 96.064 76.645 96.839 77.367 C98.275 78.704 99.712 80.038 101.153 81.369 C105.17 85.125 108.861 89.029 112.439 93.203 C114.358 95.412 116.4 97.463 118.5 99.5 C122.548 103.508 126.305 107.668 130 112 C130.904 113.041 131.809 114.081 132.715 115.121 C139.203 122.594 145.476 130.198 151.5 138.049 C152.524 139.381 153.553 140.708 154.586 142.033 C172.49 165.007 188.777 189.585 203 215 C203.518 215.919 204.036 216.838 204.569 217.785 C242.812 285.967 267.164 360.385 282.203 499.766 C282.206 500.491 282.209 501.217 282.212 501.965 C282.227 505.825 282.236 509.684 282.24 513.543 C282.245 516.645 282.258 519.747 282.281 522.849 C282.487 551.234 280.975 579.4 276.75 607.5 C276.699 607.848 276.699 607.848 276.44 609.607 C267.576 669.623 250.116 727.565 224.212 782.419 C223.109 784.768 222.028 787.125 220.957 789.488 C208.591 816.628 192.947 842.494 176 867 C175.499 867.727 174.997 868.453 174.481 869.202 C168.308 878.12 161.957 886.866 155.256 895.396 C153.948 897.066 152.651 898.743 151.355 900.422 C141.96 912.548 131.967 924.086 121.531 935.325 C120.379 936.586 119.24 937.859 118.107 939.138 C112.314 945.669 106.262 951.892 100.079 958.051 C98.433 959.692 96.791 961.339 95.15 962.986 C89.605 968.535 83.977 973.914 78 979 C76.392 980.454 74.788 981.912 73.188 983.375 C68.924 987.218 64.554 990.893 60.09 994.5 C57.84 996.32 55.605 998.152 53.379 1000 C38.831 1012.032 23.491 1022.758 7.812 1033.25 C7.189 1033.668 6.566 1034.086 5.924 1034.517 C-3.217 1040.641 -12.524 1046.41 -22 1052 C-22.858 1052.513 -23.717 1053.027 -24.601 1053.556 C-94.082 1095.033 -173.775 1121.817 -287 1135 C-288.189 1135.105 -289.378 1135.209 -290.603 1135.317 C-304.748 1136.382 -318.948 1136.246 -333.125 1136.25 C-333.824 1136.25 -334.522 1136.251 -335.242 1136.251 C-358.271 1136.259 -381.113 1135.752 -404 1133 C-404.73 1132.913 -405.46 1132.826 -406.211 1132.736 C-487.094 1122.951 -565.559 1098.249 -654 1048 C-654.843 1047.485 -655.686 1046.97 -656.555 1046.439 C-690.36 1025.677 -721.683 1001.692 -751 975 C-751.875 974.21 -752.749 973.42 -753.651 972.606 C-760.683 966.221 -767.499 959.658 -774.202 952.928 C-775.826 951.299 -777.454 949.676 -779.084 948.053 C-784.6 942.54 -789.943 936.941 -795 931 C-796.454 929.392 -797.912 927.788 -799.375 926.188 C-804.106 920.938 -808.57 915.504 -813 910 C-813.925 908.867 -814.851 907.734 -815.777 906.602 C-822.965 897.769 -829.724 888.675 -836.307 879.384 C-838.033 876.954 -839.772 874.534 -841.512 872.113 C-849.106 861.483 -856.065 850.61 -862.64 839.323 C-863.89 837.187 -865.16 835.066 -866.441 832.949 C-907.331 765.125 -933.512 689.019 -949 581 C-949.112 579.92 -949.224 578.84 -949.339 577.728 C-956.89 501.561 -949.737 422.755 -825 144 C-824.515 143.363 -824.03 142.726 -823.53 142.07 C-814.555 130.34 -804.945 119.164 -795.016 108.234 C-793.126 106.139 -791.278 104.014 -789.438 101.875 C-786.505 98.502 -783.402 95.354 -780.188 92.25 C-778.279 90.287 -776.504 88.276 -774.723 86.199 C-771.189 82.133 -767.4 78.456 -763.438 74.812 C-762.746 74.171 -762.054 73.53 -761.341 72.869 C-759.919 71.551 -758.497 70.234 -757.072 68.919 C-755.117 67.108 -753.173 65.286 -751.234 63.457 C-745.248 57.823 -739.195 52.383 -732.773 47.242 C-730.216 45.175 -727.713 43.06 -725.218 40.919 C-718.684 35.32 -711.956 30.068 -705 25 C-704.344 24.518 -703.688 24.036 -703.012 23.54 C-679.71 6.424 -655.51 -9.361 -630 -23 C-629.126 -23.468 -628.253 -23.935 -627.353 -24.417 C-548.678 -66.361 -462.97 -91.274 -374 -97 C-373.102 -97.058 -372.204 -97.116 -371.278 -97.175 C-288.601 -102.199 -205.097 -90.341 0 0 Z " fill="none" transform="translate(1068,215)"/>
<path d="M0 0 C0.456 0.193 0.456 0.193 2.762 1.171 C8.567 3.658 14.3 6.281 20 9 C20.932 9.444 21.865 9.888 22.825 10.346 C56.35 26.446 87.003 46.806 116 70 C116.956 70.761 117.913 71.521 118.898 72.305 C124.808 77.063 130.432 82.058 135.98 87.227 C138.102 89.2 140.278 91.088 142.484 92.965 C148.316 98.048 153.724 103.575 159.182 109.052 C161.058 110.933 162.94 112.81 164.822 114.686 C170.76 120.62 176.603 126.562 182 133 C182.876 134.01 183.754 135.019 184.633 136.027 C191.542 144.095 198.057 152.42 204.433 160.914 C205.437 162.25 206.443 163.583 207.454 164.914 C234.155 200.08 234.155 200.08 235 215 C235.062 215.577 235.062 215.577 235.375 218.5 C234.837 246.361 205.642 276.165 188.559 296.004 C186.087 298.898 183.695 301.844 181.312 304.812 C178.118 308.741 174.789 312.371 171.117 315.855 C169.248 317.749 167.521 319.689 165.785 321.703 C161.896 326.181 157.767 330.381 153.562 334.562 C152.85 335.279 152.138 335.995 151.404 336.732 C147.33 340.799 143.158 344.686 138.798 348.443 C136.436 350.488 134.16 352.62 131.875 354.75 C126.086 360.028 119.987 364.832 113.785 369.613 C112.042 370.967 110.316 372.339 108.594 373.719 C34.775 432.774 -57.658 467.773 -173.236 465.124 C-178.51 464.531 -183.755 463.803 -189 463 C-189.981 462.855 -190.963 462.711 -191.974 462.562 C-223.762 457.795 -253.813 448.358 -283 435 C-283.818 434.633 -284.635 434.266 -285.478 433.888 C-299.13 427.758 -312.078 420.533 -325 413 C-325.431 412.75 -325.431 412.75 -327.614 411.488 C-356.375 394.81 -383.638 375.236 -408.898 353.629 C-411.824 351.133 -414.814 348.721 -417.812 346.312 C-421.741 343.118 -425.371 339.789 -428.855 336.117 C-430.729 334.268 -432.646 332.563 -434.641 330.848 C-439.496 326.631 -444.028 322.119 -448.562 317.562 C-449.374 316.755 -450.185 315.947 -451.021 315.115 C-455.89 310.239 -460.518 305.231 -465 300 C-465.949 298.928 -466.899 297.858 -467.852 296.789 C-485.998 276.199 -512.861 245.173 -512.246 216.18 C-510.904 198.836 -500.454 186.039 -490.694 172.378 C-489.224 170.314 -487.769 168.241 -486.324 166.16 C-478.058 154.308 -468.989 143.033 -459.195 132.406 C-457.363 130.398 -455.581 128.36 -453.805 126.302 C-450.313 122.309 -446.669 118.508 -442.922 114.754 C-442.27 114.098 -441.618 113.443 -440.946 112.768 C-439.576 111.393 -438.204 110.019 -436.832 108.646 C-434.764 106.576 -432.704 104.498 -430.645 102.42 C-424.101 95.849 -417.562 89.515 -410.255 83.788 C-408.035 82.028 -405.952 80.176 -403.875 78.25 C-396.961 72.04 -389.432 66.567 -382 61 C-381.341 60.505 -380.683 60.011 -380.004 59.501 C-370.883 52.67 -361.585 46.163 -352 40 C-351.235 39.508 -350.47 39.015 -349.681 38.508 C-320.542 19.877 -289.577 3.715 -257 -8 C-256.48 -8.188 -256.48 -8.188 -253.847 -9.14 C-170.438 -38.941 -81.189 -34.547 0 0 Z " fill="none" transform="translate(872,516)"/>
<path d="M0 0 C0.675 0.439 1.35 0.879 2.045 1.332 C22.247 14.528 41.928 28.775 60.176 44.574 C62.842 46.864 65.563 49.061 68.312 51.25 C75.135 56.809 81.457 62.892 87.833 68.95 C90.063 71.06 92.309 73.153 94.559 75.242 C95.311 75.943 96.064 76.645 96.839 77.367 C98.275 78.704 99.712 80.038 101.153 81.369 C105.17 85.125 108.861 89.029 112.439 93.203 C114.358 95.412 116.4 97.463 118.5 99.5 C122.548 103.508 126.305 107.668 130 112 C130.904 113.041 131.809 114.081 132.715 115.121 C139.203 122.594 145.476 130.198 151.5 138.049 C152.524 139.381 153.553 140.708 154.586 142.033 C172.49 165.007 188.777 189.585 203 215 C203.518 215.919 204.036 216.838 204.569 217.785 C242.812 285.967 267.164 360.385 282.203 499.766 C282.206 500.491 282.209 501.217 282.212 501.965 C282.227 505.825 282.236 509.684 282.24 513.543 C282.245 516.645 282.258 519.747 282.281 522.849 C282.487 551.234 280.975 579.4 276.75 607.5 C276.699 607.848 276.699 607.848 276.44 609.607 C267.576 669.623 250.116 727.565 224.212 782.419 C223.109 784.768 222.028 787.125 220.957 789.488 C208.591 816.628 192.947 842.494 176 867 C175.499 867.727 174.997 868.453 174.481 869.202 C168.308 878.12 161.957 886.866 155.256 895.396 C153.948 897.066 152.651 898.743 151.355 900.422 C141.96 912.548 131.967 924.086 121.531 935.325 C120.379 936.586 119.24 937.859 118.107 939.138 C112.314 945.669 106.262 951.892 100.079 958.051 C98.433 959.692 96.791 961.339 95.15 962.986 C89.605 968.535 83.977 973.914 78 979 C76.392 980.454 74.788 981.912 73.188 983.375 C68.924 987.218 64.554 990.893 60.09 994.5 C57.84 996.32 55.605 998.152 53.379 1000 C38.831 1012.032 23.491 1022.758 7.812 1033.25 C7.189 1033.668 6.566 1034.086 5.924 1034.517 C-3.217 1040.641 -12.524 1046.41 -22 1052 C-22.858 1052.513 -23.717 1053.027 -24.601 1053.556 C-94.082 1095.033 -173.775 1121.817 -287 1135 C-288.189 1135.105 -289.378 1135.209 -290.603 1135.317 C-304.748 1136.382 -318.948 1136.246 -333.125 1136.25 C-333.824 1136.25 -334.522 1136.251 -335.242 1136.251 C-358.271 1136.259 -381.113 1135.752 -404 1133 C-404.73 1132.913 -405.46 1132.826 -406.211 1132.736 C-487.094 1122.951 -565.559 1098.249 -654 1048 C-654.843 1047.485 -655.686 1046.97 -656.555 1046.439 C-690.36 1025.677 -721.683 1001.692 -751 975 C-751.875 974.21 -752.749 973.42 -753.651 972.606 C-760.683 966.221 -767.499 959.658 -774.202 952.928 C-775.826 951.299 -777.454 949.676 -779.084 948.053 C-784.6 942.54 -789.943 936.941 -795 931 C-796.454 929.392 -797.912 927.788 -799.375 926.188 C-804.106 920.938 -808.57 915.504 -813 910 C-813.925 908.867 -814.851 907.734 -815.777 906.602 C-822.965 897.769 -829.724 888.675 -836.307 879.384 C-838.033 876.954 -839.772 874.534 -841.512 872.113 C-849.106 861.483 -856.065 850.61 -862.64 839.323 C-863.89 837.187 -865.16 835.066 -866.441 832.949 C-907.331 765.125 -933.512 689.019 -949 581 C-949.112 579.92 -949.224 578.84 -949.339 577.728 C-956.89 501.561 -949.737 422.755 -825 144 C-824.515 143.363 -824.03 142.726 -823.53 142.07 C-814.555 130.34 -804.945 119.164 -795.016 108.234 C-793.126 106.139 -791.278 104.014 -789.438 101.875 C-786.505 98.502 -783.402 95.354 -780.188 92.25 C-778.279 90.287 -776.504 88.276 -774.723 86.199 C-771.189 82.133 -767.4 78.456 -763.438 74.812 C-762.746 74.171 -762.054 73.53 -761.341 72.869 C-759.919 71.551 -758.497 70.234 -757.072 68.919 C-755.117 67.108 -753.173 65.286 -751.234 63.457 C-745.248 57.823 -739.195 52.383 -732.773 47.242 C-730.216 45.175 -727.713 43.06 -725.218 40.919 C-718.684 35.32 -711.956 30.068 -705 25 C-704.344 24.518 -703.688 24.036 -703.012 23.54 C-679.71 6.424 -655.51 -9.361 -630 -23 C-629.126 -23.468 -628.253 -23.935 -627.353 -24.417 C-548.678 -66.361 -462.97 -91.274 -374 -97 C-373.102 -97.058 -372.204 -97.116 -371.278 -97.175 C-288.601 -102.199 -205.097 -90.341 0 0 Z M-434 -56 C-435.104 -55.801 -436.207 -55.603 -437.344 -55.398 C-444.593 -54.067 -451.8 -52.572 -459 -51 C-460.16 -50.75 -461.321 -50.5 -462.516 -50.243 C-481.354 -46.154 -499.698 -41.04 -518 -35 C-519.114 -34.636 -520.227 -34.273 -521.375 -33.898 C-586.402 -12.558 -648.551 21.814 -701.243 65.547 C-703.769 67.636 -706.325 69.69 -708.875 71.75 C-713.171 75.267 -717.321 78.918 -721.418 82.664 C-723.527 84.572 -725.655 86.447 -727.801 88.312 C-740.966 99.813 -753.179 112.135 -765 125 C-765.968 126.043 -766.937 127.086 -767.906 128.129 C-772.636 133.26 -777.159 138.517 -781.539 143.949 C-783.333 146.173 -785.139 148.382 -786.961 150.582 C-845.129 221.029 -886.024 306.378 -915.188 458.438 C-915.23 458.833 -915.23 458.833 -915.445 460.834 C-917.456 479.756 -918.266 498.597 -918.312 517.625 C-918.315 518.672 -918.318 519.719 -918.32 520.797 C-918.329 553.602 -915.839 586.693 -910 619 C-909.915 619.488 -909.915 619.488 -909.482 621.958 C-900.749 671.19 -885.221 719.745 -864 765 C-863.574 765.921 -863.149 766.842 -862.71 767.791 C-855.526 783.299 -847.688 798.283 -839 813 C-838.43 813.967 -837.86 814.934 -837.272 815.931 C-817.462 849.369 -794.428 880.756 -768.263 909.502 C-766.856 911.055 -765.456 912.616 -764.069 914.188 C-758.164 920.86 -751.961 927.192 -745.652 933.478 C-743.933 935.192 -742.219 936.911 -740.506 938.631 C-734.838 944.302 -729.111 949.802 -723 955 C-721.455 956.413 -719.913 957.829 -718.375 959.25 C-713.337 963.796 -708.055 967.963 -702.695 972.117 C-700.228 974.031 -697.788 975.973 -695.367 977.945 C-686.204 985.409 -676.757 992.332 -667 999 C-666.182 999.56 -665.365 1000.12 -664.522 1000.696 C-646.26 1013.149 -627.429 1024.47 -608 1035 C-607.26 1035.404 -606.52 1035.809 -605.757 1036.225 C-535.711 1074.387 -455.727 1096.191 -376.312 1101.625 C-375.836 1101.658 -375.836 1101.658 -373.427 1101.823 C-344.144 1103.79 -315.242 1103.447 -286 1101 C-284.079 1100.853 -282.159 1100.707 -280.238 1100.562 C-256.859 1098.714 -233.954 1094.841 -211.091 1089.683 C-207.577 1088.907 -204.052 1088.205 -200.521 1087.514 C-169.467 1081.34 -138.837 1070.051 -109.562 1058.125 C-108.926 1057.866 -108.29 1057.608 -107.635 1057.341 C-35.389 1027.826 28.538 981.426 83.562 926.562 C84.08 926.048 84.597 925.534 85.129 925.004 C90.973 919.184 96.666 913.297 102 907 C102.95 905.905 103.9 904.812 104.852 903.719 C163.038 836.347 205.13 757.599 239.453 625.106 C240.06 621.658 240.779 618.242 241.5 614.816 C243.175 606.527 244.176 598.218 245.062 589.812 C245.146 589.027 245.23 588.241 245.317 587.432 C245.824 582.667 246.313 577.9 246.787 573.132 C246.978 571.216 247.175 569.301 247.373 567.386 C250.754 533.583 250.177 498.802 247 465 C246.925 464.156 246.85 463.312 246.773 462.442 C243.513 426.264 236.443 389.989 225.701 355.307 C225.059 353.195 224.45 351.079 223.859 348.953 C214.765 316.342 201.076 285.239 186 255 C185.553 254.103 185.107 253.205 184.646 252.281 C166.888 216.876 144.746 183.232 119.453 152.757 C117.364 150.231 115.31 147.675 113.25 145.125 C109.666 140.747 105.936 136.525 102.125 132.344 C100.175 130.193 98.27 128.012 96.375 125.812 C93.63 122.656 90.733 119.711 87.75 116.781 C85.918 114.916 84.206 112.981 82.5 111 C77.392 105.096 71.879 99.842 65.969 94.75 C64.07 93.062 62.28 91.312 60.5 89.5 C56.837 85.788 52.965 82.384 49 79 C48.041 78.175 47.082 77.35 46.094 76.5 C38.238 69.771 30.22 63.279 22 57 C21.664 56.743 21.664 56.743 19.964 55.443 C-23.111 22.693 -70.601 -4.306 -121 -24 C-122.206 -24.472 -123.413 -24.944 -124.656 -25.43 C-209.475 -58.264 -300.519 -69.687 -434 -56 Z " fill="#4E57A6" transform="translate(1068,215)"/>
<path d="M0 0 C0.456 0.193 0.456 0.193 2.762 1.171 C8.567 3.658 14.3 6.281 20 9 C20.932 9.444 21.865 9.888 22.825 10.346 C56.35 26.446 87.003 46.806 116 70 C116.956 70.761 117.913 71.521 118.898 72.305 C124.808 77.063 130.432 82.058 135.98 87.227 C138.102 89.2 140.278 91.088 142.484 92.965 C148.316 98.048 153.724 103.575 159.182 109.052 C161.058 110.933 162.94 112.81 164.822 114.686 C170.76 120.62 176.603 126.562 182 133 C182.876 134.01 183.754 135.019 184.633 136.027 C191.542 144.095 198.057 152.42 204.433 160.914 C205.437 162.25 206.443 163.583 207.454 164.914 C234.155 200.08 234.155 200.08 235 215 C235.062 215.577 235.062 215.577 235.375 218.5 C234.837 246.361 205.642 276.165 188.559 296.004 C186.087 298.898 183.695 301.844 181.312 304.812 C178.118 308.741 174.789 312.371 171.117 315.855 C169.248 317.749 167.521 319.689 165.785 321.703 C161.896 326.181 157.767 330.381 153.562 334.562 C152.85 335.279 152.138 335.995 151.404 336.732 C147.33 340.799 143.158 344.686 138.798 348.443 C136.436 350.488 134.16 352.62 131.875 354.75 C126.086 360.028 119.987 364.832 113.785 369.613 C112.042 370.967 110.316 372.339 108.594 373.719 C34.775 432.774 -57.658 467.773 -173.236 465.124 C-178.51 464.531 -183.755 463.803 -189 463 C-189.981 462.855 -190.963 462.711 -191.974 462.562 C-223.762 457.795 -253.813 448.358 -283 435 C-283.818 434.633 -284.635 434.266 -285.478 433.888 C-299.13 427.758 -312.078 420.533 -325 413 C-325.431 412.75 -325.431 412.75 -327.614 411.488 C-356.375 394.81 -383.638 375.236 -408.898 353.629 C-411.824 351.133 -414.814 348.721 -417.812 346.312 C-421.741 343.118 -425.371 339.789 -428.855 336.117 C-430.729 334.268 -432.646 332.563 -434.641 330.848 C-439.496 326.631 -444.028 322.119 -448.562 317.562 C-449.374 316.755 -450.185 315.947 -451.021 315.115 C-455.89 310.239 -460.518 305.231 -465 300 C-465.949 298.928 -466.899 297.858 -467.852 296.789 C-485.998 276.199 -512.861 245.173 -512.246 216.18 C-510.904 198.836 -500.454 186.039 -490.694 172.378 C-489.224 170.314 -487.769 168.241 -486.324 166.16 C-478.058 154.308 -468.989 143.033 -459.195 132.406 C-457.363 130.398 -455.581 128.36 -453.805 126.302 C-450.313 122.309 -446.669 118.508 -442.922 114.754 C-442.27 114.098 -441.618 113.443 -440.946 112.768 C-439.576 111.393 -438.204 110.019 -436.832 108.646 C-434.764 106.576 -432.704 104.498 -430.645 102.42 C-424.101 95.849 -417.562 89.515 -410.255 83.788 C-408.035 82.028 -405.952 80.176 -403.875 78.25 C-396.961 72.04 -389.432 66.567 -382 61 C-381.341 60.505 -380.683 60.011 -380.004 59.501 C-370.883 52.67 -361.585 46.163 -352 40 C-351.235 39.508 -350.47 39.015 -349.681 38.508 C-320.542 19.877 -289.577 3.715 -257 -8 C-256.48 -8.188 -256.48 -8.188 -253.847 -9.14 C-170.438 -38.941 -81.189 -34.547 0 0 Z M-190 17 C-192.166 17.419 -194.333 17.836 -196.5 18.25 C-261.892 31.26 -324.504 66.056 -375 109 C-375.267 109.225 -375.267 109.225 -376.618 110.365 C-389.009 120.822 -400.83 131.741 -412.312 143.188 C-412.789 143.661 -413.265 144.135 -413.756 144.623 C-419.395 150.237 -424.867 155.919 -430 162 C-430.541 162.634 -431.082 163.268 -431.639 163.922 C-443.775 178.23 -454.768 193.279 -465 209 C-465.538 209.77 -466.075 210.539 -466.629 211.332 C-467.102 212.027 -467.575 212.722 -468.062 213.438 C-468.466 214.014 -468.869 214.59 -469.285 215.184 C-470.35 217.89 -469.899 219.225 -469 222 C-467.66 224.732 -466.131 227.331 -464.562 229.938 C-464.117 230.685 -463.672 231.432 -463.213 232.201 C-456.64 243.077 -449.108 253.22 -441 263 C-440.203 263.971 -439.407 264.941 -438.586 265.941 C-427.123 279.781 -414.828 293.371 -401.188 305.094 C-398.645 307.309 -396.169 309.591 -393.688 311.875 C-388.285 316.795 -382.711 321.444 -377 326 C-376.492 326.408 -375.983 326.816 -375.459 327.236 C-320.15 371.565 -256.946 409.974 -186 421 C-185.038 421.152 -184.077 421.305 -183.086 421.462 C-143.02 427.58 -102.063 424.371 -63 414 C-62.121 413.771 -61.242 413.543 -60.336 413.307 C-38.47 407.51 -17.434 399.667 3 390 C3.759 389.642 4.518 389.284 5.3 388.915 C9.923 386.714 14.474 384.393 19 382 C19.378 381.802 19.378 381.802 21.289 380.799 C55.232 362.895 85.771 339.877 114 314 C114.542 313.508 115.084 313.017 115.643 312.51 C125.018 303.997 133.845 295.101 142.392 285.757 C143.771 284.25 145.162 282.753 146.555 281.258 C152.212 275.117 157.347 268.602 162.446 262 C164.105 259.865 165.781 257.746 167.461 255.629 C174.777 246.374 181.737 237.004 188 227 C188.394 226.405 188.788 225.81 189.194 225.197 C190.848 222.574 191.997 220.619 192.012 217.477 C190.659 214.166 188.835 211.303 186.812 208.375 C186.377 207.734 185.941 207.093 185.492 206.433 C176.885 193.889 167.857 181.593 158 170 C157.555 169.471 157.11 168.943 156.651 168.398 C146.333 156.147 135.553 144.474 124.25 133.125 C123.458 132.328 122.666 131.531 121.849 130.71 C117.06 125.934 112.134 121.401 107 117 C105.797 115.943 104.595 114.884 103.395 113.824 C95.494 106.888 87.454 100.253 79 94 C78.671 93.755 78.671 93.755 77.006 92.517 C59.542 79.572 41.439 67.873 22.421 57.342 C20.903 56.5 19.387 55.653 17.876 54.799 C-12.115 37.841 -45.457 26.447 -79 19 C-79.442 18.901 -79.442 18.901 -81.678 18.399 C-84.24 17.833 -86.806 17.286 -89.375 16.75 C-90.086 16.599 -90.797 16.447 -91.53 16.292 C-107.576 13.112 -123.693 12.593 -140 12.625 C-141.035 12.626 -142.07 12.626 -143.136 12.627 C-159.154 12.665 -174.304 13.623 -190 17 Z " fill="#4F57A6" transform="translate(872,516)"/>
<path d="M0 0 C21.726 16.679 34.89 41.163 38.809 68.156 C41.574 94.96 31.3 119.874 14.934 140.469 C3.758 153.432 -11.109 163.383 -27.191 169.156 C-28.237 169.537 -29.282 169.917 -30.359 170.309 C-48.362 176.593 -71.328 177.104 -89.191 170.156 C-89.994 169.856 -90.798 169.556 -91.625 169.246 C-93.881 168.317 -96.022 167.272 -98.191 166.156 C-99.208 165.652 -100.226 165.148 -101.273 164.629 C-108.645 160.844 -114.944 156.578 -121.191 151.156 C-121.602 150.824 -121.602 150.824 -123.68 149.141 C-138.638 136.578 -146.836 119.618 -151.703 101.017 C-152.095 99.522 -152.516 98.035 -152.945 96.551 C-158.918 72.954 -151.643 46.282 -139.64 25.839 C-127.27 5.649 -108.677 -9.007 -85.703 -15.055 C-84.544 -15.315 -83.385 -15.575 -82.191 -15.844 C-81.462 -16.018 -80.733 -16.193 -79.982 -16.372 C-52.713 -22.473 -22.744 -16.047 0 0 Z " fill="none" transform="translate(791.19140625,656.84375)"/>
<path d="M0 0 C2.451 2.246 4.843 4.55 7.237 6.858 C7.944 7.501 8.65 8.144 9.378 8.807 C20.462 19.192 28.053 32.135 34.237 45.858 C34.478 46.383 34.478 46.383 35.698 49.041 C48.901 79.168 48.527 113.081 37.126 143.623 C24.681 174.913 1.513 199.452 -29.282 213.037 C-36.895 216.227 -44.784 218.756 -52.763 220.858 C-53.495 221.055 -54.227 221.252 -54.981 221.455 C-62.219 223.165 -69.455 223.162 -76.847 223.118 C-78.995 223.108 -81.142 223.118 -83.29 223.131 C-95.984 223.147 -108.136 221.917 -120.2 217.733 C-120.647 217.58 -120.647 217.58 -122.907 216.806 C-153.839 205.851 -178.472 181.763 -192.575 152.42 C-196.43 144.112 -199.555 135.747 -201.763 126.858 C-201.925 126.212 -202.087 125.567 -202.254 124.902 C-206.578 106.867 -206.145 87.812 -201.763 69.858 C-201.546 68.83 -201.33 67.803 -201.106 66.744 C-194.376 36.498 -174.582 8.109 -148.63 -8.838 C-102.574 -37.084 -41.393 -36.998 0 0 Z M-151.079 31.33 C-168.68 52.514 -177.728 78.901 -175.99 106.435 C-173.608 131.801 -161.827 154.965 -142.556 171.666 C-124.575 185.774 -105.102 194.033 -82.138 194.045 C-80.917 194.057 -79.696 194.07 -78.438 194.082 C-67.67 194.1 -58.029 192.793 -48.013 188.795 C-47.248 188.492 -46.484 188.189 -45.696 187.877 C-33.498 182.862 -23.144 176.166 -13.763 166.858 C-12.896 166.033 -12.03 165.208 -11.138 164.358 C-10.354 163.533 -9.57 162.708 -8.763 161.858 C-8.473 161.565 -8.473 161.565 -7.005 160.084 C7.164 145.138 15.806 124.383 17.237 103.858 C17.33 102.668 17.423 101.478 17.519 100.252 C18.586 73.646 6.749 48.328 -10.763 28.858 C-27.916 11.135 -53.259 1.997 -77.597 1.315 C-105.872 1.148 -131.468 10.396 -151.079 31.33 Z " fill="#4F58A6" transform="translate(812.7626953125,637.142333984375)"/>
</svg>
