<?xml version="1.0" encoding="UTF-8"?>
<!-- Generator: visioncortex VTracer 0.6.12 -->
<svg version="1.1" xmlns="http://www.w3.org/2000/svg" width="1467" height="1469">
<path d="M0 0 C2.615 1.565 5.243 3.102 7.879 4.631 C40 23.366 69.995 46.593 97.485 71.6 C99.568 73.482 101.683 75.318 103.813 77.146 C107.573 80.415 111.049 83.926 114.543 87.475 C116.487 89.387 118.473 91.149 120.563 92.896 C125.429 97.061 129.62 101.835 133.922 106.564 C136.076 108.928 138.278 111.221 140.563 113.459 C144.17 117.014 147.455 120.803 150.75 124.646 C151.658 125.69 152.565 126.733 153.473 127.775 C159.957 135.247 166.229 142.847 172.25 150.696 C173.274 152.027 174.303 153.355 175.336 154.679 C193.241 177.653 209.527 202.231 223.75 227.646 C224.268 228.566 224.786 229.485 225.32 230.432 C263.562 298.614 287.914 373.032 302.954 512.412 C302.956 513.138 302.959 513.864 302.962 514.612 C302.977 518.471 302.986 522.331 302.991 526.19 C302.995 529.292 303.009 532.394 303.032 535.496 C303.237 563.881 301.726 592.046 297.5 620.146 C297.449 620.494 297.449 620.494 297.191 622.253 C288.326 682.27 270.867 740.211 244.963 795.066 C243.86 797.414 242.778 799.771 241.708 802.135 C229.341 829.275 213.698 855.141 196.75 879.646 C196.249 880.373 195.748 881.1 195.231 881.848 C189.058 890.766 182.707 899.513 176.007 908.043 C174.699 909.712 173.402 911.39 172.106 913.068 C162.711 925.195 152.717 936.733 142.282 947.971 C141.129 949.232 139.99 950.505 138.858 951.784 C133.064 958.316 127.013 964.539 120.83 970.698 C119.183 972.339 117.542 973.986 115.901 975.633 C110.356 981.182 104.728 986.561 98.75 991.646 C97.143 993.101 95.538 994.559 93.938 996.021 C89.674 999.865 85.305 1003.54 80.84 1007.146 C78.591 1008.967 76.356 1010.799 74.129 1012.646 C59.582 1024.679 44.241 1035.404 28.563 1045.896 C27.94 1046.315 27.317 1046.733 26.675 1047.163 C17.534 1053.287 8.226 1059.056 -1.25 1064.646 C-2.108 1065.16 -2.966 1065.673 -3.85 1066.202 C-73.332 1107.679 -153.025 1134.463 -266.25 1147.646 C-267.439 1147.751 -268.628 1147.856 -269.853 1147.963 C-283.997 1149.029 -298.198 1148.892 -312.375 1148.896 C-313.073 1148.897 -313.772 1148.897 -314.492 1148.898 C-337.521 1148.905 -360.363 1148.398 -383.25 1145.646 C-383.979 1145.559 -384.709 1145.472 -385.461 1145.382 C-466.344 1135.597 -544.809 1110.896 -633.25 1060.646 C-634.093 1060.131 -634.936 1059.616 -635.804 1059.085 C-660.456 1043.945 -684.027 1027.169 -706.25 1008.646 C-706.829 1008.166 -707.409 1007.685 -708.006 1007.19 C-715.389 1001.062 -722.533 994.724 -729.56 988.192 C-730.821 987.039 -732.094 985.899 -733.374 984.767 C-740.063 978.838 -746.422 972.628 -752.728 966.299 C-754.442 964.579 -756.161 962.866 -757.88 961.152 C-763.552 955.485 -769.057 949.761 -774.25 943.646 C-775.704 942.039 -777.162 940.434 -778.625 938.834 C-783.355 933.585 -787.819 928.15 -792.25 922.646 C-793.175 921.513 -794.101 920.381 -795.027 919.248 C-802.215 910.415 -808.973 901.321 -815.557 892.031 C-817.282 889.6 -819.021 887.18 -820.761 884.76 C-828.355 874.13 -835.315 863.256 -841.89 851.969 C-843.14 849.834 -844.41 847.712 -845.691 845.596 C-886.581 777.772 -912.762 701.665 -928.25 593.646 C-928.361 592.572 -928.473 591.498 -928.588 590.391 C-936.556 510.513 -928.118 428.164 -804.25 156.646 C-803.764 156.01 -803.279 155.373 -802.779 154.717 C-793.805 142.986 -784.195 131.811 -774.265 120.881 C-772.375 118.786 -770.527 116.66 -768.687 114.521 C-765.754 111.149 -762.652 108 -759.437 104.896 C-757.528 102.933 -755.754 100.923 -753.972 98.846 C-750.438 94.78 -746.649 91.102 -742.687 87.459 C-741.995 86.818 -741.303 86.176 -740.591 85.515 C-739.169 84.197 -737.746 82.881 -736.322 81.566 C-734.366 79.755 -732.423 77.932 -730.484 76.104 C-724.497 70.47 -718.445 65.03 -712.023 59.889 C-709.466 57.821 -706.963 55.706 -704.468 53.565 C-697.934 47.966 -691.206 42.715 -684.25 37.646 C-683.594 37.165 -682.938 36.683 -682.262 36.186 C-658.959 19.071 -634.759 3.285 -609.25 -10.354 C-608.376 -10.821 -607.503 -11.289 -606.603 -11.771 C-527.927 -53.714 -442.219 -78.627 -353.25 -84.354 C-352.351 -84.411 -351.453 -84.469 -350.528 -84.529 C-267.851 -89.553 -184.347 -77.694 0 0 Z " fill="#F8E0CD" transform="translate(1047.24951171875,202.353515625)"/>
<path d="M0 0 C2.615 1.565 5.243 3.102 7.879 4.631 C40 23.366 69.995 46.593 97.485 71.6 C99.568 73.482 101.683 75.318 103.813 77.146 C107.573 80.415 111.049 83.926 114.543 87.475 C116.487 89.387 118.473 91.149 120.563 92.896 C125.429 97.061 129.62 101.835 133.922 106.564 C136.076 108.928 138.278 111.221 140.563 113.459 C144.17 117.014 147.455 120.803 150.75 124.646 C151.658 125.69 152.565 126.733 153.473 127.775 C159.957 135.247 166.229 142.847 172.25 150.696 C173.274 152.027 174.303 153.355 175.336 154.679 C193.241 177.653 209.527 202.231 223.75 227.646 C224.268 228.566 224.786 229.485 225.32 230.432 C263.562 298.614 287.914 373.032 302.954 512.412 C302.956 513.138 302.959 513.864 302.962 514.612 C302.977 518.471 302.986 522.331 302.991 526.19 C302.995 529.292 303.009 532.394 303.032 535.496 C303.237 563.881 301.726 592.046 297.5 620.146 C297.449 620.494 297.449 620.494 297.191 622.253 C288.326 682.27 270.867 740.211 244.963 795.066 C243.86 797.414 242.778 799.771 241.708 802.135 C229.341 829.275 213.698 855.141 196.75 879.646 C196.249 880.373 195.748 881.1 195.231 881.848 C189.058 890.766 182.707 899.513 176.007 908.043 C174.699 909.712 173.402 911.39 172.106 913.068 C162.711 925.195 152.717 936.733 142.282 947.971 C141.129 949.232 139.99 950.505 138.858 951.784 C133.064 958.316 127.013 964.539 120.83 970.698 C119.183 972.339 117.542 973.986 115.901 975.633 C110.356 981.182 104.728 986.561 98.75 991.646 C97.143 993.101 95.538 994.559 93.938 996.021 C89.674 999.865 85.305 1003.54 80.84 1007.146 C78.591 1008.967 76.356 1010.799 74.129 1012.646 C59.582 1024.679 44.241 1035.404 28.563 1045.896 C27.94 1046.315 27.317 1046.733 26.675 1047.163 C17.534 1053.287 8.226 1059.056 -1.25 1064.646 C-2.108 1065.16 -2.966 1065.673 -3.85 1066.202 C-73.332 1107.679 -153.025 1134.463 -266.25 1147.646 C-267.439 1147.751 -268.628 1147.856 -269.853 1147.963 C-283.997 1149.029 -298.198 1148.892 -312.375 1148.896 C-313.073 1148.897 -313.772 1148.897 -314.492 1148.898 C-337.521 1148.905 -360.363 1148.398 -383.25 1145.646 C-383.979 1145.559 -384.709 1145.472 -385.461 1145.382 C-466.344 1135.597 -544.809 1110.896 -633.25 1060.646 C-634.093 1060.131 -634.936 1059.616 -635.804 1059.085 C-660.456 1043.945 -684.027 1027.169 -706.25 1008.646 C-706.829 1008.166 -707.409 1007.685 -708.006 1007.19 C-715.389 1001.062 -722.533 994.724 -729.56 988.192 C-730.821 987.039 -732.094 985.899 -733.374 984.767 C-740.063 978.838 -746.422 972.628 -752.728 966.299 C-754.442 964.579 -756.161 962.866 -757.88 961.152 C-763.552 955.485 -769.057 949.761 -774.25 943.646 C-775.704 942.039 -777.162 940.434 -778.625 938.834 C-783.355 933.585 -787.819 928.15 -792.25 922.646 C-793.175 921.513 -794.101 920.381 -795.027 919.248 C-802.215 910.415 -808.973 901.321 -815.557 892.031 C-817.282 889.6 -819.021 887.18 -820.761 884.76 C-828.355 874.13 -835.315 863.256 -841.89 851.969 C-843.14 849.834 -844.41 847.712 -845.691 845.596 C-886.581 777.772 -912.762 701.665 -928.25 593.646 C-928.361 592.572 -928.473 591.498 -928.588 590.391 C-936.556 510.513 -928.118 428.164 -804.25 156.646 C-803.764 156.01 -803.279 155.373 -802.779 154.717 C-793.805 142.986 -784.195 131.811 -774.265 120.881 C-772.375 118.786 -770.527 116.66 -768.687 114.521 C-765.754 111.149 -762.652 108 -759.437 104.896 C-757.528 102.933 -755.754 100.923 -753.972 98.846 C-750.438 94.78 -746.649 91.102 -742.687 87.459 C-741.995 86.818 -741.303 86.176 -740.591 85.515 C-739.169 84.197 -737.746 82.881 -736.322 81.566 C-734.366 79.755 -732.423 77.932 -730.484 76.104 C-724.497 70.47 -718.445 65.03 -712.023 59.889 C-709.466 57.821 -706.963 55.706 -704.468 53.565 C-697.934 47.966 -691.206 42.715 -684.25 37.646 C-683.594 37.165 -682.938 36.683 -682.262 36.186 C-658.959 19.071 -634.759 3.285 -609.25 -10.354 C-608.376 -10.821 -607.503 -11.289 -606.603 -11.771 C-527.927 -53.714 -442.219 -78.627 -353.25 -84.354 C-352.351 -84.411 -351.453 -84.469 -350.528 -84.529 C-267.851 -89.553 -184.347 -77.694 0 0 Z M-424.25 -41.354 C-425.029 -41.199 -425.809 -41.045 -426.613 -40.886 C-432.175 -39.78 -437.715 -38.59 -443.25 -37.354 C-443.707 -37.252 -443.707 -37.252 -446.023 -36.738 C-500.223 -24.577 -553.093 -4.092 -601.25 23.646 C-601.582 23.837 -601.582 23.837 -603.263 24.803 C-613.971 30.972 -624.368 37.506 -634.625 44.396 C-635.336 44.873 -636.048 45.349 -636.782 45.84 C-652.132 56.117 -667.088 66.77 -681.25 78.646 C-683.082 80.126 -684.916 81.606 -686.75 83.084 C-691.461 86.935 -695.979 90.963 -700.449 95.092 C-702.638 97.088 -704.847 99.046 -707.082 100.99 C-719.573 111.892 -731.25 123.519 -742.472 135.716 C-744.1 137.484 -745.737 139.243 -747.378 140.998 C-752.395 146.383 -757.208 151.891 -761.82 157.627 C-763.611 159.853 -765.417 162.061 -767.242 164.26 C-824.399 233.347 -864.558 317.437 -894.437 471.084 C-894.522 471.874 -894.607 472.665 -894.694 473.479 C-896.827 493.545 -897.488 513.469 -897.5 533.646 C-897.501 534.835 -897.502 536.024 -897.503 537.249 C-897.491 556.901 -896.619 576.143 -894.25 595.646 C-894.11 596.88 -893.971 598.113 -893.828 599.384 C-889.639 636.355 -882.133 673.425 -870.24 708.701 C-869.158 711.917 -868.101 715.141 -867.042 718.365 C-854.405 756.377 -837.807 793.248 -817.25 827.646 C-816.728 828.521 -816.207 829.396 -815.67 830.297 C-803.966 849.824 -791.169 868.633 -777.25 886.646 C-777.02 886.945 -777.02 886.945 -775.861 888.456 C-766.905 900.112 -757.405 911.281 -747.51 922.15 C-746.11 923.697 -744.716 925.251 -743.336 926.817 C-737.295 933.648 -730.931 940.118 -724.474 946.552 C-722.683 948.338 -720.897 950.13 -719.111 951.922 C-713.326 957.711 -707.505 963.362 -701.25 968.646 C-700.057 969.691 -698.867 970.738 -697.679 971.787 C-690.038 978.486 -682.281 984.971 -674.21 991.145 C-672.845 992.19 -671.484 993.24 -670.125 994.292 C-644.685 1013.974 -617.55 1031.38 -589.25 1046.646 C-588.404 1047.106 -587.558 1047.566 -586.686 1048.04 C-562.363 1061.214 -537.19 1072.089 -511.25 1081.646 C-510.875 1081.786 -510.875 1081.786 -508.981 1082.489 C-481.439 1092.698 -452.159 1100.488 -423.25 1105.646 C-422.664 1105.751 -422.664 1105.751 -419.7 1106.282 C-400.965 1109.578 -382.211 1112.044 -363.25 1113.646 C-362.034 1113.751 -360.818 1113.855 -359.566 1113.963 C-311.332 1117.961 -262.989 1115.429 -215.25 1107.646 C-214.74 1107.563 -214.74 1107.563 -212.16 1107.143 C-206.154 1106.135 -200.198 1104.951 -194.25 1103.646 C-193.108 1103.396 -191.967 1103.146 -190.791 1102.889 C-175.906 1099.59 -161.174 1095.995 -146.632 1091.389 C-144.075 1090.592 -141.508 1089.832 -138.937 1089.08 C-123.49 1084.558 -123.49 1084.558 -116.742 1081.686 C-114.214 1080.632 -111.658 1079.681 -109.086 1078.74 C-92.18 1072.544 -75.371 1065.678 -59.25 1057.646 C-58.319 1057.183 -57.388 1056.72 -56.43 1056.243 C-16.694 1036.322 20.769 1012.444 55.018 984.075 C57.494 982.034 60 980.032 62.5 978.021 C67.418 973.999 72.084 969.748 76.731 965.42 C78.852 963.447 81.028 961.558 83.235 959.682 C89.067 954.599 94.474 949.072 99.932 943.595 C101.809 941.713 103.69 939.837 105.573 937.961 C111.512 932.025 117.336 926.072 122.75 919.646 C123.795 918.454 124.842 917.264 125.891 916.076 C132.594 908.431 139.08 900.67 145.258 892.594 C146.289 891.249 147.324 889.908 148.364 888.57 C165.51 866.487 181.088 843.038 194.75 818.646 C195.309 817.653 195.867 816.659 196.443 815.636 C208.026 794.902 218.119 773.539 227.313 751.646 C227.706 750.71 228.1 749.774 228.505 748.81 C230.886 743.036 232.964 737.204 234.891 731.263 C235.609 729.077 236.37 726.922 237.188 724.771 C237.428 724.137 237.668 723.503 237.915 722.85 C238.551 721.171 239.193 719.494 239.836 717.818 C243.525 707.904 246.286 697.809 248.976 687.586 C249.749 684.65 250.536 681.719 251.325 678.787 C259.024 649.995 263.78 620.879 267 591.271 C267.083 590.518 267.166 589.765 267.252 588.989 C269.391 569.356 269.989 549.83 270 530.084 C270.001 528.917 270.003 527.75 270.004 526.548 C269.992 507.377 269.096 488.679 266.75 469.646 C266.457 467.059 266.164 464.472 265.872 461.885 C257.893 393.761 237.43 328.863 206.75 267.646 C206.24 266.623 205.73 265.6 205.204 264.546 C193.472 241.143 179.824 219.035 164.75 197.646 C164.186 196.841 163.621 196.035 163.04 195.206 C155.821 184.935 148.22 175.063 140.204 165.404 C138.114 162.877 136.061 160.322 134 157.771 C130.416 153.393 126.686 149.172 122.875 144.99 C120.926 142.84 119.02 140.658 117.125 138.459 C114.379 135.301 111.481 132.355 108.497 129.424 C106.686 127.581 104.997 125.668 103.313 123.709 C98.033 117.604 92.324 112.072 86.204 106.818 C83.551 104.47 80.976 102.052 78.399 99.621 C71.728 93.33 64.922 87.367 57.75 81.646 C56.548 80.655 55.348 79.661 54.149 78.666 C8.976 41.27 -43.308 11.089 -97.798 -10.385 C-100.321 -11.382 -102.836 -12.399 -105.351 -13.416 C-109.758 -15.18 -114.202 -16.8 -118.687 -18.354 C-123.298 -19.958 -127.884 -21.591 -132.437 -23.354 C-141.508 -26.647 -150.922 -28.917 -160.25 -31.354 C-161.444 -31.669 -162.638 -31.984 -163.868 -32.309 C-242.556 -52.979 -324.99 -57.547 -424.25 -41.354 Z " fill="#F5833D" transform="translate(1047.24951171875,202.353515625)"/>
<path d="M0 0 C0.665 -0.004 1.331 -0.008 2.017 -0.012 C4.256 -0.024 6.496 -0.021 8.736 -0.018 C10.354 -0.023 11.972 -0.029 13.59 -0.036 C18.044 -0.052 22.499 -0.056 26.953 -0.057 C31.754 -0.061 36.555 -0.076 41.356 -0.09 C51.858 -0.117 62.361 -0.129 72.863 -0.138 C79.419 -0.143 85.975 -0.152 92.532 -0.161 C110.681 -0.185 128.831 -0.206 146.98 -0.212 C148.142 -0.213 149.304 -0.213 150.501 -0.214 C151.666 -0.214 152.83 -0.214 154.03 -0.215 C156.39 -0.216 158.75 -0.217 161.11 -0.218 C162.281 -0.218 163.452 -0.218 164.658 -0.219 C183.628 -0.227 202.597 -0.262 221.567 -0.308 C241.038 -0.356 260.51 -0.381 279.981 -0.383 C290.916 -0.385 301.85 -0.396 312.784 -0.433 C322.095 -0.463 331.406 -0.474 340.717 -0.457 C345.467 -0.449 350.217 -0.451 354.968 -0.479 C359.319 -0.505 363.669 -0.502 368.02 -0.478 C369.592 -0.474 371.164 -0.48 372.736 -0.498 C381.64 -0.59 388.691 -0.225 395.395 6.263 C399.703 11.287 400.769 16.099 400.665 22.568 C400.129 27.924 398.41 32.298 394.524 36.087 C388.827 40.535 384.061 42.512 376.759 42.517 C376.43 42.519 376.43 42.519 374.768 42.527 C372.564 42.535 370.36 42.529 368.156 42.524 C366.561 42.527 364.966 42.53 363.371 42.535 C358.985 42.545 354.6 42.543 350.214 42.539 C345.485 42.537 340.757 42.546 336.028 42.553 C326.762 42.566 317.496 42.568 308.23 42.565 C300.7 42.563 293.169 42.565 285.638 42.569 C285.102 42.57 285.102 42.57 282.392 42.571 C280.217 42.572 278.041 42.574 275.865 42.575 C255.45 42.586 235.036 42.584 214.621 42.577 C195.942 42.572 177.262 42.584 158.583 42.603 C139.409 42.622 120.235 42.63 101.06 42.626 C90.293 42.625 79.526 42.627 68.759 42.641 C59.592 42.653 50.425 42.655 41.258 42.642 C36.581 42.636 31.903 42.635 27.226 42.647 C22.943 42.658 18.661 42.655 14.378 42.641 C12.829 42.638 11.281 42.641 9.733 42.649 C-6.89 42.729 -6.89 42.729 -13.847 37.614 C-14.386 37.045 -14.925 36.475 -15.48 35.888 C-16.034 35.323 -16.588 34.759 -17.159 34.177 C-21.493 28.438 -21.172 22.149 -20.605 15.263 C-19.392 9.267 -15.459 5.635 -10.605 2.263 C-7.055 0.046 -4.144 0.009 0 0 Z " fill="#F5843E" transform="translate(624.6046781539917,689.7371444702148)"/>
<path d="M0 0 C0.657 -0.004 1.314 -0.008 1.99 -0.012 C4.183 -0.022 6.375 -0.018 8.567 -0.014 C10.158 -0.019 11.749 -0.024 13.34 -0.03 C17.706 -0.044 22.072 -0.046 26.438 -0.045 C31.149 -0.047 35.86 -0.06 40.571 -0.072 C50.868 -0.094 61.166 -0.102 71.463 -0.107 C77.894 -0.111 84.325 -0.117 90.755 -0.124 C108.563 -0.144 126.371 -0.16 144.18 -0.163 C144.749 -0.163 144.749 -0.163 147.632 -0.164 C149.941 -0.164 152.251 -0.165 154.56 -0.165 C155.133 -0.165 155.133 -0.165 158.034 -0.165 C158.608 -0.166 158.608 -0.166 161.512 -0.166 C180.116 -0.17 198.719 -0.197 217.323 -0.234 C236.427 -0.272 255.531 -0.291 274.635 -0.292 C285.36 -0.292 296.085 -0.301 306.809 -0.33 C315.94 -0.354 325.071 -0.362 334.201 -0.346 C338.859 -0.339 343.516 -0.34 348.174 -0.363 C352.44 -0.383 356.707 -0.381 360.974 -0.36 C362.514 -0.357 364.054 -0.361 365.595 -0.376 C374.282 -0.451 381.915 -0.122 389.138 5.26 C394.835 11.385 396.452 16.217 396.353 24.537 C395.865 30.724 392.59 34.243 388.138 38.26 C383.455 42.234 379.613 42.385 373.559 42.394 C372.897 42.397 372.234 42.399 371.551 42.401 C369.321 42.408 367.091 42.408 364.861 42.407 C363.249 42.411 361.638 42.414 360.027 42.418 C355.591 42.428 351.156 42.432 346.72 42.435 C341.94 42.439 337.159 42.448 332.378 42.457 C320.831 42.477 309.283 42.487 297.736 42.496 C292.3 42.5 286.864 42.505 281.428 42.511 C263.363 42.528 245.298 42.542 227.232 42.549 C222.544 42.551 217.856 42.553 213.168 42.555 C212.003 42.556 210.837 42.556 209.637 42.557 C190.75 42.565 171.863 42.59 152.976 42.623 C133.593 42.656 114.209 42.674 94.826 42.677 C83.94 42.679 73.054 42.688 62.168 42.714 C52.899 42.735 43.631 42.743 34.362 42.734 C29.632 42.729 24.903 42.731 20.173 42.75 C15.843 42.768 11.514 42.767 7.184 42.751 C5.617 42.749 4.051 42.753 2.484 42.765 C-6.327 42.828 -12.737 42.845 -19.569 36.733 C-25.17 29.587 -25.749 23.158 -24.862 14.26 C-22.608 9.301 -18.503 5.162 -13.862 2.26 C-9.115 0.681 -4.992 0.008 0 0 Z " fill="#F5843E" transform="translate(628.8617067337036,875.7399377822876)"/>
<path d="M0 0 C0.658 -0.003 1.315 -0.005 1.993 -0.008 C4.211 -0.016 6.43 -0.016 8.649 -0.017 C10.25 -0.021 11.85 -0.025 13.451 -0.03 C17.862 -0.042 22.273 -0.048 26.684 -0.052 C31.437 -0.058 36.19 -0.07 40.942 -0.081 C52.427 -0.105 63.911 -0.12 75.395 -0.133 C78.638 -0.136 81.881 -0.14 85.124 -0.144 C105.256 -0.17 125.387 -0.192 145.519 -0.204 C150.183 -0.207 154.847 -0.21 159.512 -0.213 C160.671 -0.214 161.83 -0.215 163.025 -0.215 C181.807 -0.228 200.589 -0.261 219.371 -0.303 C238.648 -0.345 257.925 -0.369 277.202 -0.374 C288.028 -0.378 298.854 -0.389 309.68 -0.422 C318.899 -0.45 328.118 -0.461 337.338 -0.45 C342.042 -0.445 346.745 -0.448 351.449 -0.472 C355.758 -0.495 360.065 -0.494 364.374 -0.475 C365.93 -0.472 367.487 -0.478 369.043 -0.493 C378.465 -0.578 385.945 -0.04 393.152 6.58 C398.004 11.886 399.117 17.638 398.96 24.61 C398.114 30.251 394.721 34.344 390.518 38.012 C385.739 41.469 382.987 42.387 377.017 42.391 C376.356 42.395 375.695 42.398 375.014 42.401 C372.79 42.41 370.566 42.404 368.341 42.398 C366.734 42.401 365.127 42.405 363.52 42.409 C359.096 42.42 354.672 42.417 350.247 42.413 C345.479 42.411 340.711 42.42 335.942 42.427 C326.597 42.44 317.252 42.442 307.907 42.439 C300.312 42.438 292.718 42.439 285.123 42.444 C284.583 42.444 284.583 42.444 281.851 42.445 C279.657 42.447 277.464 42.448 275.27 42.449 C254.685 42.46 234.101 42.458 213.516 42.452 C194.677 42.446 175.839 42.458 157 42.477 C137.667 42.496 118.333 42.504 99 42.501 C88.141 42.499 77.283 42.501 66.425 42.515 C57.18 42.527 47.936 42.529 38.691 42.517 C33.973 42.511 29.256 42.51 24.538 42.522 C20.219 42.532 15.901 42.529 11.582 42.515 C10.02 42.513 8.457 42.515 6.895 42.523 C4.77 42.533 2.646 42.525 0.522 42.512 C-0.068 42.512 -0.068 42.512 -3.054 42.512 C-9.699 41.772 -14.74 38.817 -19.419 34.137 C-23.277 27.964 -23.335 21.258 -22.419 14.137 C-20.166 7.616 -15.466 4.085 -9.419 1.137 C-6.062 0.018 -3.539 0.007 0 0 Z " fill="#F5833D" transform="translate(626.4191608428955,489.8629856109619)"/>
<path d="M0 0 C12.189 9.113 21.64 22.005 25 37 C26.559 55.63 24.264 71.801 12.707 87.02 C4.187 96.921 -5.821 102.59 -18 107 C-18.674 107.247 -19.348 107.495 -20.043 107.75 C-32.907 111.7 -48.252 108.919 -60.188 103.375 C-76.216 94.71 -86.55 81.884 -91.812 64.562 C-94.678 51.933 -94.565 37.805 -89 26 C-88.576 25.071 -88.152 24.141 -87.715 23.184 C-81.053 9.842 -69.69 -1.19 -55.508 -6.191 C-54.68 -6.458 -53.853 -6.725 -53 -7 C-52.172 -7.298 -51.345 -7.596 -50.492 -7.902 C-33.029 -13.558 -15.339 -9.279 0 0 Z " fill="#F5833E" transform="translate(537,848)"/>
<path d="M0 0 C8.041 6.214 14.081 13.032 19 22 C19.577 22.969 20.155 23.939 20.75 24.938 C26.782 39.715 27.859 57.715 21.695 72.635 C18.924 78.701 15.32 83.949 11 89 C10.469 89.642 9.938 90.284 9.391 90.945 C-1.114 102.542 -17.014 108.775 -32.436 109.589 C-49.486 109.875 -64.367 102.987 -76.684 91.402 C-89.244 78.376 -93.498 62.988 -93.207 45.281 C-92.682 30.654 -85.985 16.952 -75.863 6.539 C-54.368 -12.522 -24.603 -15.897 0 0 Z " fill="#F5833E" transform="translate(537,661)"/>
<path d="M0 0 C0.859 0.245 1.717 0.49 2.602 0.742 C18.236 5.719 29.367 17.368 37.273 31.277 C41.289 39.414 42.469 47.119 42.312 56.125 C42.316 57.062 42.319 57.999 42.322 58.965 C42.2 74.826 35.66 88.666 24.941 100.219 C12.087 112.483 -2.547 116.502 -19.793 116.424 C-27.47 116.229 -33.922 115.141 -41 112 C-41.79 111.649 -42.58 111.299 -43.395 110.938 C-58.321 103.409 -68.245 90.852 -73.973 75.371 C-78.393 60.59 -77.266 44.187 -70.715 30.27 C-62.329 15.203 -48.771 4.088 -32.25 -0.816 C-21.813 -3.037 -10.228 -3.213 0 0 Z " fill="#F5833E" transform="translate(520,454)"/>
<path d="M0 0 C0.7 0.413 1.4 0.825 2.121 1.25 C8.56 5.535 12.567 11.7 15 19 C16.052 29.003 14.831 36.691 9 45 C3.424 51.109 -2.71 55.461 -11.031 56.309 C-21.043 56.681 -28.426 54.718 -36.16 48.172 C-42.174 41.89 -45.156 34.663 -45.5 26 C-45.178 17.363 -42.218 10.08 -36 4 C-24.928 -4.53 -12.561 -7.513 0 0 Z " fill="#F8E0CC" transform="translate(518,485)"/>
<path d="M0 0 C6.042 4.066 10.517 10.129 12.379 17.219 C13.716 26.844 12.6 34.554 7.277 42.727 C2.807 48.574 -2.34 52.276 -9.27 54.75 C-18.65 55.898 -27.53 55.672 -35.27 49.75 C-42.44 43.517 -46.394 36.353 -47.645 26.922 C-48.029 18.329 -45.405 12.093 -40.02 5.5 C-28.587 -6.763 -14.354 -7.906 0 0 Z " fill="#F8E0CC" transform="translate(520.26953125,872.25)"/>
<path d="M0 0 C7.276 4.341 13.419 10.558 16.023 18.789 C17.73 27.643 16.702 36.255 12.219 44.059 C8.093 50.121 2.422 54.609 -4.562 56.938 C-14.889 57.652 -24.256 57.805 -32.805 51.207 C-39.896 44.7 -43.53 36.516 -44 26.938 C-43.894 18.966 -40.657 12.425 -35.406 6.508 C-25.814 -2.461 -12.289 -5.711 0 0 Z " fill="#F8E0CC" transform="translate(516.5625,683.0625)"/>
</svg>
