<?xml version="1.0" encoding="UTF-8"?>
<!-- Generator: visioncortex VTracer 0.6.12 -->
<svg version="1.1" xmlns="http://www.w3.org/2000/svg" width="1467" height="1469">
<path d="M0 0 C2.615 1.565 5.243 3.102 7.879 4.631 C40 23.366 69.995 46.593 97.485 71.6 C99.568 73.482 101.683 75.318 103.813 77.146 C107.573 80.415 111.049 83.926 114.543 87.475 C116.487 89.387 118.473 91.149 120.563 92.896 C125.429 97.061 129.62 101.835 133.922 106.564 C136.076 108.928 138.278 111.221 140.563 113.459 C144.17 117.014 147.455 120.803 150.75 124.646 C151.658 125.69 152.565 126.733 153.473 127.775 C159.957 135.247 166.229 142.847 172.25 150.696 C173.274 152.027 174.303 153.355 175.336 154.679 C193.241 177.653 209.527 202.231 223.75 227.646 C224.268 228.566 224.786 229.485 225.32 230.432 C263.562 298.614 287.914 373.032 302.954 512.412 C302.956 513.138 302.959 513.864 302.962 514.612 C302.977 518.471 302.986 522.331 302.991 526.19 C302.995 529.292 303.009 532.394 303.032 535.496 C303.237 563.881 301.726 592.046 297.5 620.146 C297.449 620.494 297.449 620.494 297.191 622.253 C288.326 682.27 270.867 740.211 244.963 795.066 C243.86 797.414 242.778 799.771 241.708 802.135 C229.341 829.275 213.698 855.141 196.75 879.646 C196.249 880.373 195.748 881.1 195.231 881.848 C189.058 890.766 182.707 899.513 176.007 908.043 C174.699 909.712 173.402 911.39 172.106 913.068 C162.711 925.195 152.717 936.733 142.282 947.971 C141.129 949.232 139.99 950.505 138.858 951.784 C133.064 958.316 127.013 964.539 120.83 970.698 C119.183 972.339 117.542 973.986 115.901 975.633 C110.356 981.182 104.728 986.561 98.75 991.646 C97.143 993.101 95.538 994.559 93.938 996.021 C89.674 999.865 85.305 1003.54 80.84 1007.146 C78.591 1008.967 76.356 1010.799 74.129 1012.646 C59.582 1024.679 44.241 1035.404 28.563 1045.896 C27.94 1046.315 27.317 1046.733 26.675 1047.163 C17.534 1053.287 8.226 1059.056 -1.25 1064.646 C-2.108 1065.16 -2.966 1065.673 -3.85 1066.202 C-73.332 1107.679 -153.025 1134.463 -266.25 1147.646 C-267.439 1147.751 -268.628 1147.856 -269.853 1147.963 C-283.997 1149.029 -298.198 1148.892 -312.375 1148.896 C-313.073 1148.897 -313.772 1148.897 -314.492 1148.898 C-337.521 1148.905 -360.363 1148.398 -383.25 1145.646 C-383.979 1145.559 -384.709 1145.472 -385.461 1145.382 C-466.344 1135.597 -544.809 1110.896 -633.25 1060.646 C-634.093 1060.131 -634.936 1059.616 -635.804 1059.085 C-669.609 1038.324 -700.933 1014.338 -730.25 987.646 C-731.124 986.857 -731.999 986.067 -732.9 985.253 C-739.932 978.868 -746.749 972.304 -753.451 965.575 C-755.075 963.946 -756.704 962.322 -758.333 960.699 C-763.85 955.186 -769.192 949.587 -774.25 943.646 C-775.704 942.039 -777.162 940.434 -778.625 938.834 C-783.355 933.585 -787.819 928.15 -792.25 922.646 C-793.175 921.513 -794.101 920.381 -795.027 919.248 C-802.215 910.415 -808.973 901.321 -815.557 892.031 C-817.282 889.6 -819.021 887.18 -820.761 884.76 C-828.355 874.13 -835.315 863.256 -841.89 851.969 C-843.14 849.834 -844.41 847.712 -845.691 845.596 C-886.581 777.772 -912.762 701.665 -928.25 593.646 C-928.361 592.567 -928.473 591.487 -928.588 590.375 C-936.14 514.208 -928.986 435.402 -804.25 156.646 C-803.764 156.01 -803.279 155.373 -802.779 154.717 C-793.805 142.986 -784.195 131.811 -774.265 120.881 C-772.375 118.786 -770.527 116.66 -768.687 114.521 C-765.754 111.149 -762.652 108 -759.437 104.896 C-757.528 102.933 -755.754 100.923 -753.972 98.846 C-750.438 94.78 -746.649 91.102 -742.687 87.459 C-741.995 86.818 -741.303 86.176 -740.591 85.515 C-739.169 84.197 -737.746 82.881 -736.322 81.566 C-734.366 79.755 -732.423 77.932 -730.484 76.104 C-724.497 70.47 -718.445 65.03 -712.023 59.889 C-709.466 57.821 -706.963 55.706 -704.468 53.565 C-697.934 47.966 -691.206 42.715 -684.25 37.646 C-683.594 37.165 -682.938 36.683 -682.262 36.186 C-658.959 19.071 -634.759 3.285 -609.25 -10.354 C-608.376 -10.821 -607.503 -11.289 -606.603 -11.771 C-527.927 -53.714 -442.219 -78.627 -353.25 -84.354 C-352.351 -84.411 -351.453 -84.469 -350.528 -84.529 C-267.851 -89.553 -184.347 -77.694 0 0 Z " fill="#EEF5F7" transform="translate(1047.24951171875,202.353515625)"/>
<path d="M0 0 C2.615 1.565 5.243 3.102 7.879 4.631 C40 23.366 69.995 46.593 97.485 71.6 C99.568 73.482 101.683 75.318 103.813 77.146 C107.573 80.415 111.049 83.926 114.543 87.475 C116.487 89.387 118.473 91.149 120.563 92.896 C125.429 97.061 129.62 101.835 133.922 106.564 C136.076 108.928 138.278 111.221 140.563 113.459 C144.17 117.014 147.455 120.803 150.75 124.646 C151.658 125.69 152.565 126.733 153.473 127.775 C159.957 135.247 166.229 142.847 172.25 150.696 C173.274 152.027 174.303 153.355 175.336 154.679 C193.241 177.653 209.527 202.231 223.75 227.646 C224.268 228.566 224.786 229.485 225.32 230.432 C263.562 298.614 287.914 373.032 302.954 512.412 C302.956 513.138 302.959 513.864 302.962 514.612 C302.977 518.471 302.986 522.331 302.991 526.19 C302.995 529.292 303.009 532.394 303.032 535.496 C303.237 563.881 301.726 592.046 297.5 620.146 C297.449 620.494 297.449 620.494 297.191 622.253 C288.326 682.27 270.867 740.211 244.963 795.066 C243.86 797.414 242.778 799.771 241.708 802.135 C229.341 829.275 213.698 855.141 196.75 879.646 C196.249 880.373 195.748 881.1 195.231 881.848 C189.058 890.766 182.707 899.513 176.007 908.043 C174.699 909.712 173.402 911.39 172.106 913.068 C162.711 925.195 152.717 936.733 142.282 947.971 C141.129 949.232 139.99 950.505 138.858 951.784 C133.064 958.316 127.013 964.539 120.83 970.698 C119.183 972.339 117.542 973.986 115.901 975.633 C110.356 981.182 104.728 986.561 98.75 991.646 C97.143 993.101 95.538 994.559 93.938 996.021 C89.674 999.865 85.305 1003.54 80.84 1007.146 C78.591 1008.967 76.356 1010.799 74.129 1012.646 C59.582 1024.679 44.241 1035.404 28.563 1045.896 C27.94 1046.315 27.317 1046.733 26.675 1047.163 C17.534 1053.287 8.226 1059.056 -1.25 1064.646 C-2.108 1065.16 -2.966 1065.673 -3.85 1066.202 C-73.332 1107.679 -153.025 1134.463 -266.25 1147.646 C-267.439 1147.751 -268.628 1147.856 -269.853 1147.963 C-283.997 1149.029 -298.198 1148.892 -312.375 1148.896 C-313.073 1148.897 -313.772 1148.897 -314.492 1148.898 C-337.521 1148.905 -360.363 1148.398 -383.25 1145.646 C-383.979 1145.559 -384.709 1145.472 -385.461 1145.382 C-466.344 1135.597 -544.809 1110.896 -633.25 1060.646 C-634.093 1060.131 -634.936 1059.616 -635.804 1059.085 C-669.609 1038.324 -700.933 1014.338 -730.25 987.646 C-731.124 986.857 -731.999 986.067 -732.9 985.253 C-739.932 978.868 -746.749 972.304 -753.451 965.575 C-755.075 963.946 -756.704 962.322 -758.333 960.699 C-763.85 955.186 -769.192 949.587 -774.25 943.646 C-775.704 942.039 -777.162 940.434 -778.625 938.834 C-783.355 933.585 -787.819 928.15 -792.25 922.646 C-793.175 921.513 -794.101 920.381 -795.027 919.248 C-802.215 910.415 -808.973 901.321 -815.557 892.031 C-817.282 889.6 -819.021 887.18 -820.761 884.76 C-828.355 874.13 -835.315 863.256 -841.89 851.969 C-843.14 849.834 -844.41 847.712 -845.691 845.596 C-886.581 777.772 -912.762 701.665 -928.25 593.646 C-928.361 592.567 -928.473 591.487 -928.588 590.375 C-936.14 514.208 -928.986 435.402 -804.25 156.646 C-803.764 156.01 -803.279 155.373 -802.779 154.717 C-793.805 142.986 -784.195 131.811 -774.265 120.881 C-772.375 118.786 -770.527 116.66 -768.687 114.521 C-765.754 111.149 -762.652 108 -759.437 104.896 C-757.528 102.933 -755.754 100.923 -753.972 98.846 C-750.438 94.78 -746.649 91.102 -742.687 87.459 C-741.995 86.818 -741.303 86.176 -740.591 85.515 C-739.169 84.197 -737.746 82.881 -736.322 81.566 C-734.366 79.755 -732.423 77.932 -730.484 76.104 C-724.497 70.47 -718.445 65.03 -712.023 59.889 C-709.466 57.821 -706.963 55.706 -704.468 53.565 C-697.934 47.966 -691.206 42.715 -684.25 37.646 C-683.594 37.165 -682.938 36.683 -682.262 36.186 C-658.959 19.071 -634.759 3.285 -609.25 -10.354 C-608.376 -10.821 -607.503 -11.289 -606.603 -11.771 C-527.927 -53.714 -442.219 -78.627 -353.25 -84.354 C-352.351 -84.411 -351.453 -84.469 -350.528 -84.529 C-267.851 -89.553 -184.347 -77.694 0 0 Z M-444.689 -36.996 C-446.957 -36.427 -449.227 -35.901 -451.511 -35.404 C-488.717 -27.294 -526.981 -14.656 -560.785 2.881 C-564.179 4.61 -567.608 6.226 -571.063 7.828 C-581.405 12.63 -591.384 17.932 -601.25 23.646 C-601.839 23.985 -602.428 24.324 -603.034 24.673 C-613.82 30.884 -624.294 37.457 -634.625 44.396 C-635.336 44.873 -636.048 45.349 -636.782 45.84 C-652.132 56.117 -667.088 66.77 -681.25 78.646 C-683.082 80.126 -684.916 81.606 -686.75 83.084 C-691.461 86.935 -695.979 90.963 -700.449 95.092 C-702.638 97.088 -704.847 99.046 -707.082 100.99 C-719.573 111.892 -731.25 123.519 -742.472 135.716 C-744.1 137.484 -745.737 139.243 -747.378 140.998 C-752.395 146.383 -757.208 151.891 -761.82 157.627 C-763.611 159.853 -765.417 162.061 -767.242 164.26 C-798.432 201.96 -825.81 245.247 -845.156 290.167 C-846.454 293.111 -847.817 296.024 -849.179 298.939 C-874.469 353.59 -890.15 415.144 -895.039 475.114 C-895.188 476.903 -895.349 478.692 -895.519 480.48 C-899.392 521.745 -898.371 563.555 -893.25 604.646 C-893.207 604.988 -893.207 604.988 -892.994 606.719 C-888.716 641.089 -881.447 675.968 -870.224 708.782 C-869.142 711.962 -868.095 715.154 -867.046 718.346 C-854.418 756.365 -837.809 793.244 -817.25 827.646 C-816.728 828.521 -816.207 829.396 -815.67 830.297 C-803.966 849.824 -791.169 868.633 -777.25 886.646 C-777.02 886.945 -777.02 886.945 -775.861 888.456 C-766.905 900.112 -757.405 911.281 -747.51 922.15 C-746.11 923.697 -744.716 925.251 -743.336 926.817 C-737.295 933.648 -730.931 940.118 -724.474 946.552 C-722.683 948.338 -720.897 950.13 -719.111 951.922 C-713.326 957.711 -707.505 963.362 -701.25 968.646 C-700.057 969.691 -698.867 970.738 -697.679 971.787 C-690.038 978.486 -682.281 984.971 -674.21 991.145 C-672.845 992.19 -671.484 993.24 -670.125 994.292 C-644.685 1013.974 -617.55 1031.38 -589.25 1046.646 C-588.404 1047.106 -587.558 1047.566 -586.686 1048.04 C-562.363 1061.214 -537.19 1072.089 -511.25 1081.646 C-510.875 1081.786 -510.875 1081.786 -508.981 1082.489 C-447.788 1105.172 -380.613 1115.844 -315.437 1115.896 C-315.05 1115.897 -315.05 1115.897 -313.09 1115.899 C-280.27 1115.854 -247.627 1112.925 -215.25 1107.646 C-214.74 1107.563 -214.74 1107.563 -212.16 1107.143 C-206.154 1106.135 -200.198 1104.951 -194.25 1103.646 C-193.108 1103.396 -191.967 1103.146 -190.791 1102.889 C-175.906 1099.59 -161.174 1095.995 -146.632 1091.389 C-144.075 1090.592 -141.508 1089.832 -138.937 1089.08 C-123.49 1084.558 -123.49 1084.558 -116.742 1081.686 C-114.214 1080.632 -111.658 1079.681 -109.086 1078.74 C-92.18 1072.544 -75.371 1065.678 -59.25 1057.646 C-58.319 1057.183 -57.388 1056.72 -56.43 1056.243 C-16.694 1036.322 20.769 1012.444 55.018 984.075 C57.494 982.034 60 980.032 62.5 978.021 C67.418 973.999 72.084 969.748 76.731 965.42 C78.852 963.447 81.028 961.558 83.235 959.682 C89.067 954.599 94.474 949.072 99.932 943.595 C101.809 941.713 103.69 939.837 105.573 937.961 C111.512 932.025 117.336 926.072 122.75 919.646 C123.795 918.454 124.842 917.264 125.891 916.076 C132.594 908.431 139.08 900.67 145.258 892.594 C146.289 891.249 147.324 889.908 148.364 888.57 C165.51 866.487 181.088 843.038 194.75 818.646 C195.309 817.653 195.867 816.659 196.443 815.636 C208.026 794.902 218.119 773.539 227.313 751.646 C227.706 750.71 228.1 749.774 228.505 748.81 C230.886 743.036 232.964 737.204 234.891 731.263 C235.609 729.077 236.37 726.922 237.188 724.771 C237.428 724.137 237.668 723.503 237.915 722.85 C238.551 721.171 239.193 719.494 239.836 717.818 C243.525 707.904 246.286 697.809 248.976 687.586 C249.749 684.65 250.536 681.719 251.325 678.787 C269.366 611.335 275.606 538.994 266.75 469.646 C266.587 468.284 266.425 466.921 266.264 465.558 C263.006 437.935 263.006 437.935 260.234 424.925 C259.633 422.093 259.057 419.256 258.477 416.42 C251.345 381.934 241.856 348.349 228.75 315.646 C228.391 314.736 228.032 313.825 227.661 312.887 C223.222 301.647 218.501 290.701 212.936 279.975 C211.562 277.277 210.241 274.555 208.922 271.83 C190.475 233.898 167.151 197.872 140.204 165.404 C138.114 162.877 136.061 160.322 134 157.771 C130.416 153.393 126.686 149.172 122.875 144.99 C120.926 142.84 119.02 140.658 117.125 138.459 C114.379 135.301 111.481 132.355 108.497 129.424 C106.686 127.581 104.997 125.668 103.313 123.709 C98.033 117.604 92.324 112.072 86.204 106.818 C83.551 104.47 80.976 102.052 78.399 99.621 C71.728 93.33 64.922 87.367 57.75 81.646 C56.548 80.655 55.348 79.661 54.149 78.666 C8.976 41.27 -43.308 11.089 -97.798 -10.385 C-100.321 -11.382 -102.836 -12.399 -105.351 -13.416 C-109.758 -15.18 -114.202 -16.8 -118.687 -18.354 C-123.298 -19.958 -127.884 -21.591 -132.437 -23.354 C-140.552 -26.315 -148.97 -28.367 -157.314 -30.571 C-160.114 -31.317 -162.907 -32.086 -165.699 -32.861 C-180.638 -36.954 -195.733 -39.923 -210.954 -42.73 C-213.688 -43.247 -216.402 -43.813 -219.121 -44.4 C-226.341 -45.854 -233.683 -46.559 -241 -47.354 C-241.794 -47.44 -242.589 -47.526 -243.408 -47.616 C-310.168 -54.823 -379.323 -53.677 -444.689 -36.996 Z " fill="#4BAE9A" transform="translate(1047.24951171875,202.353515625)"/>
<path d="M0 0 C4.572 4.919 7.115 9.27 7.438 16.062 C7.498 16.94 7.559 17.818 7.621 18.723 C5.781 28.433 -2.057 35.633 -8.804 42.318 C-9.796 43.316 -10.789 44.316 -11.78 45.316 C-14.486 48.04 -17.204 50.752 -19.925 53.462 C-22.864 56.395 -25.793 59.339 -28.723 62.282 C-34.456 68.037 -40.2 73.781 -45.948 79.52 C-50.62 84.187 -55.289 88.857 -59.956 93.53 C-60.621 94.196 -61.286 94.862 -61.971 95.548 C-63.323 96.902 -64.674 98.255 -66.026 99.608 C-78.686 112.285 -91.359 124.949 -104.035 137.609 C-115.625 149.184 -127.2 160.774 -138.768 172.371 C-150.658 184.29 -162.557 196.2 -174.466 208.099 C-175.814 209.446 -177.161 210.793 -178.509 212.139 C-179.172 212.802 -179.835 213.464 -180.518 214.147 C-185.181 218.808 -189.839 223.475 -194.494 228.145 C-200.169 233.838 -205.853 239.522 -211.549 245.195 C-214.453 248.087 -217.352 250.984 -220.241 253.891 C-222.889 256.556 -225.549 259.209 -228.217 261.853 C-229.63 263.258 -231.03 264.676 -232.429 266.093 C-238.981 272.55 -245.641 277.97 -255.125 278.562 C-260.794 278.233 -265.357 276.454 -269.535 272.574 C-273.835 267.723 -275.315 263.143 -275.5 256.75 C-275.552 255.693 -275.603 254.636 -275.656 253.547 C-273.923 244.178 -265.667 237.239 -259.176 230.795 C-258.181 229.797 -257.187 228.798 -256.193 227.798 C-253.479 225.072 -250.756 222.355 -248.031 219.639 C-245.087 216.702 -242.152 213.756 -239.215 210.811 C-233.469 205.051 -227.715 199.3 -221.957 193.551 C-217.278 188.879 -212.602 184.203 -207.927 179.526 C-207.261 178.86 -206.595 178.193 -205.909 177.506 C-204.556 176.152 -203.203 174.798 -201.85 173.444 C-189.173 160.759 -176.487 148.082 -163.797 135.409 C-152.913 124.538 -142.036 113.659 -131.165 102.774 C-118.533 90.126 -105.896 77.483 -93.252 64.847 C-91.903 63.5 -90.555 62.152 -89.206 60.805 C-88.543 60.142 -87.88 59.479 -87.196 58.796 C-82.524 54.127 -77.856 49.454 -73.189 44.78 C-67.502 39.085 -61.81 33.395 -56.111 27.711 C-53.204 24.812 -50.299 21.911 -47.401 19.003 C-44.747 16.34 -42.086 13.684 -39.42 11.034 C-38.003 9.622 -36.593 8.202 -35.183 6.782 C-24.959 -3.348 -13.148 -9.543 0 0 Z " fill="#4DAE9B" transform="translate(1039,424)"/>
<path d="M0 0 C5.299 3.014 9.452 7.786 11.75 13.438 C12.156 16.102 12.156 16.102 12.25 19.062 C12.276 19.543 12.276 19.543 12.406 21.977 C10.545 31.791 2.794 38.965 -4.042 45.724 C-5.034 46.719 -6.025 47.715 -7.015 48.712 C-9.717 51.427 -12.432 54.129 -15.149 56.83 C-18.084 59.752 -21.009 62.686 -23.934 65.619 C-29.658 71.353 -35.393 77.076 -41.131 82.796 C-47.816 89.46 -54.49 96.135 -61.164 102.81 C-73.072 114.718 -84.989 126.618 -96.912 138.511 C-108.478 150.049 -120.037 161.594 -131.588 173.146 C-131.944 173.502 -131.944 173.502 -133.745 175.304 C-134.456 176.014 -135.167 176.725 -135.899 177.457 C-149.058 190.618 -162.224 203.772 -175.393 216.923 C-180.048 221.572 -184.7 226.222 -189.352 230.873 C-195.02 236.539 -200.691 242.202 -206.367 247.859 C-209.262 250.745 -212.156 253.633 -215.045 256.525 C-217.691 259.173 -220.341 261.816 -222.995 264.456 C-224.407 265.862 -225.815 267.274 -227.222 268.686 C-234.198 275.609 -239.968 280.83 -250.125 281.812 C-255.635 281.634 -260.041 279.544 -264.016 275.754 C-269.115 269.999 -270.677 265.906 -270.492 258.18 C-269.475 246.657 -258.154 238.192 -250.471 230.512 C-249.494 229.531 -248.517 228.55 -247.54 227.569 C-244.873 224.892 -242.203 222.219 -239.533 219.546 C-236.646 216.655 -233.762 213.762 -230.878 210.869 C-223.926 203.896 -216.968 196.929 -210.01 189.962 C-206.729 186.677 -203.449 183.391 -200.169 180.106 C-189.261 169.181 -178.352 158.257 -167.439 147.337 C-164.612 144.508 -161.785 141.68 -158.959 138.851 C-158.257 138.148 -157.554 137.445 -156.83 136.721 C-145.439 125.322 -134.057 113.914 -122.678 102.502 C-110.983 90.775 -99.282 79.056 -87.573 67.343 C-81.003 60.772 -74.437 54.197 -67.879 47.613 C-62.298 42.01 -56.71 36.414 -51.113 30.827 C-48.259 27.977 -45.408 25.125 -42.567 22.264 C-39.962 19.642 -37.349 17.029 -34.728 14.424 C-33.339 13.039 -31.96 11.644 -30.582 10.249 C-21.846 1.602 -12.532 -5.49 0 0 Z " fill="#4DAE9B" transform="translate(694.25,760.5625)"/>
<path d="M0 0 C4.332 3.189 7.755 7.369 9.82 12.34 C10.074 15.083 10.074 15.083 10.08 18.304 C10.087 19.533 10.095 20.761 10.102 22.027 C10.1 23.393 10.097 24.758 10.094 26.124 C10.099 27.573 10.104 29.022 10.11 30.47 C10.125 34.457 10.126 38.444 10.126 42.431 C10.127 46.729 10.14 51.027 10.152 55.325 C10.175 64.726 10.183 74.127 10.188 83.528 C10.191 89.398 10.198 95.267 10.205 101.137 C10.224 117.387 10.241 133.637 10.244 149.887 C10.244 150.407 10.244 150.407 10.244 153.039 C10.245 155.148 10.245 157.257 10.245 159.366 C10.245 159.889 10.245 159.889 10.246 162.538 C10.246 163.586 10.246 164.634 10.246 165.714 C10.25 182.695 10.277 199.676 10.314 216.658 C10.352 234.09 10.372 251.523 10.372 268.956 C10.373 278.745 10.381 288.533 10.41 298.322 C10.435 306.657 10.442 314.993 10.427 323.328 C10.42 327.58 10.421 331.832 10.443 336.085 C10.464 339.98 10.461 343.875 10.44 347.771 C10.437 349.178 10.442 350.584 10.456 351.991 C10.535 360.287 10.016 366.63 4.82 373.34 C0.29 377.756 -4.244 379.625 -10.555 379.652 C-16.384 379.504 -20.676 378.659 -25.09 374.57 C-30.342 368.93 -32.427 363.97 -32.437 356.173 C-32.443 354.951 -32.45 353.728 -32.456 352.468 C-32.454 351.12 -32.45 349.771 -32.447 348.423 C-32.451 346.984 -32.455 345.545 -32.461 344.106 C-32.473 340.155 -32.473 336.205 -32.47 332.255 C-32.47 327.993 -32.481 323.732 -32.491 319.47 C-32.507 311.122 -32.513 302.774 -32.514 294.426 C-32.515 287.641 -32.519 280.856 -32.525 274.071 C-32.543 254.834 -32.552 235.597 -32.551 216.36 C-32.55 215.323 -32.55 214.286 -32.55 213.218 C-32.55 212.18 -32.55 211.141 -32.55 210.072 C-32.549 193.242 -32.568 176.412 -32.597 159.582 C-32.625 142.302 -32.639 125.021 -32.637 107.741 C-32.637 98.039 -32.642 88.337 -32.664 78.636 C-32.682 70.376 -32.686 62.117 -32.673 53.858 C-32.666 49.644 -32.666 45.43 -32.683 41.217 C-32.699 37.358 -32.696 33.499 -32.679 29.64 C-32.676 28.246 -32.679 26.851 -32.691 25.457 C-32.756 16.669 -32.374 10.2 -26.434 3.316 C-18.369 -3.128 -9.472 -5.388 0 0 Z " fill="#4CAE9A" transform="translate(743.1796875,784.66015625)"/>
<path d="M0 0 C1.233 -0.007 2.465 -0.014 3.735 -0.021 C5.105 -0.019 6.476 -0.017 7.846 -0.014 C9.299 -0.019 10.753 -0.024 12.207 -0.03 C16.207 -0.044 20.208 -0.046 24.208 -0.045 C28.52 -0.047 32.833 -0.06 37.145 -0.072 C46.577 -0.094 56.008 -0.102 65.44 -0.107 C71.329 -0.111 77.217 -0.117 83.105 -0.124 C99.406 -0.144 115.707 -0.16 132.008 -0.163 C132.529 -0.163 132.529 -0.163 135.17 -0.164 C137.285 -0.164 139.4 -0.165 141.515 -0.165 C142.04 -0.165 142.04 -0.165 144.697 -0.165 C145.749 -0.166 146.8 -0.166 147.883 -0.166 C164.92 -0.17 181.957 -0.197 198.994 -0.234 C216.482 -0.272 233.97 -0.291 251.459 -0.292 C261.279 -0.292 271.099 -0.301 280.919 -0.33 C289.281 -0.354 297.643 -0.362 306.005 -0.346 C310.272 -0.339 314.538 -0.34 318.804 -0.363 C322.711 -0.383 326.618 -0.381 330.525 -0.36 C331.937 -0.357 333.349 -0.361 334.761 -0.376 C343.839 -0.462 349.925 0.275 356.527 6.738 C360.958 11.678 362.581 16.253 362.384 22.791 C361.535 28.501 359.174 33.365 354.822 37.19 C349.16 41.095 344.985 42.383 338.113 42.394 C337.505 42.397 337.505 42.397 334.43 42.408 C333.08 42.408 331.729 42.408 330.379 42.407 C328.945 42.411 327.512 42.414 326.079 42.418 C322.136 42.428 318.193 42.432 314.249 42.435 C309.998 42.439 305.747 42.448 301.496 42.457 C291.229 42.477 280.961 42.487 270.693 42.496 C265.859 42.5 261.024 42.505 256.19 42.511 C240.121 42.528 224.052 42.542 207.982 42.549 C203.813 42.551 199.643 42.553 195.473 42.555 C194.437 42.556 193.401 42.556 192.333 42.557 C175.538 42.565 158.744 42.59 141.95 42.623 C124.71 42.656 107.47 42.674 90.231 42.677 C80.55 42.679 70.87 42.688 61.189 42.714 C52.946 42.735 44.703 42.743 36.46 42.734 C32.255 42.729 28.049 42.731 23.844 42.75 C19.992 42.768 16.141 42.767 12.289 42.751 C10.897 42.749 9.505 42.753 8.114 42.765 C-0.856 42.837 -7.334 42.414 -14.26 36.225 C-14.534 35.89 -14.534 35.89 -15.92 34.198 C-16.203 33.862 -16.203 33.862 -17.635 32.162 C-21.272 27.028 -20.613 20.251 -19.983 14.26 C-17.725 8.282 -13.595 4.464 -8.204 1.175 C-5.356 0.002 -3.08 0.006 0 0 Z " fill="#4DAE9B" transform="translate(805.9827766418457,713.7399377822876)"/>
<path d="M0 0 C5.327 3.03 9.402 7.786 11.75 13.438 C12.003 16.182 12.003 16.182 12.007 19.405 C12.014 20.634 12.02 21.863 12.027 23.129 C12.024 24.496 12.021 25.862 12.017 27.228 C12.021 28.678 12.026 30.127 12.031 31.577 C12.043 35.566 12.043 39.555 12.041 43.544 C12.04 47.844 12.051 52.144 12.061 56.444 C12.078 64.871 12.083 73.298 12.084 81.725 C12.085 88.574 12.089 95.424 12.096 102.274 C12.113 121.688 12.122 141.103 12.121 160.518 C12.121 161.565 12.121 162.612 12.121 163.69 C12.121 164.739 12.12 165.787 12.12 166.867 C12.12 183.856 12.139 200.844 12.167 217.832 C12.196 235.271 12.209 252.709 12.208 270.148 C12.207 279.94 12.213 289.733 12.234 299.525 C12.252 307.863 12.257 316.201 12.243 324.539 C12.236 328.793 12.236 333.047 12.254 337.302 C12.269 341.198 12.267 345.093 12.249 348.99 C12.246 350.397 12.25 351.805 12.261 353.213 C12.319 361.056 12.071 366.77 7.75 373.438 C5.715 375.496 5.715 375.496 3.688 376.875 C3.016 377.348 2.344 377.821 1.652 378.309 C-3.771 381.527 -10.161 380.964 -16.25 380.438 C-22.015 377.817 -27.003 372.646 -29.315 366.698 C-30.265 363.385 -30.504 360.729 -30.51 357.292 C-30.517 356.074 -30.524 354.856 -30.531 353.601 C-30.529 352.258 -30.527 350.915 -30.524 349.572 C-30.529 348.138 -30.534 346.705 -30.54 345.271 C-30.554 341.336 -30.556 337.402 -30.555 333.467 C-30.557 329.221 -30.57 324.976 -30.582 320.73 C-30.604 311.449 -30.612 302.168 -30.617 292.887 C-30.621 287.091 -30.627 281.295 -30.634 275.498 C-30.654 259.446 -30.67 243.394 -30.673 227.342 C-30.674 226.315 -30.674 225.288 -30.674 224.23 C-30.674 222.148 -30.675 220.066 -30.675 217.984 C-30.675 216.951 -30.675 215.917 -30.676 214.853 C-30.676 213.818 -30.676 212.783 -30.676 211.717 C-30.68 194.95 -30.707 178.183 -30.744 161.416 C-30.782 144.197 -30.801 126.977 -30.802 109.758 C-30.802 100.092 -30.811 90.426 -30.84 80.76 C-30.864 72.529 -30.872 64.299 -30.857 56.068 C-30.849 51.871 -30.85 47.673 -30.873 43.475 C-30.894 39.629 -30.891 35.782 -30.87 31.935 C-30.867 30.548 -30.871 29.16 -30.886 27.773 C-30.968 19.22 -30.15 12.619 -25.25 5.438 C-22.812 3 -22.812 3 -20.25 1.438 C-19.363 0.86 -18.476 0.283 -17.562 -0.312 C-11.665 -2.538 -5.809 -2.582 0 0 Z " fill="#4CAE9A" transform="translate(741.25,305.5625)"/>
<path d="M0 0 C1.233 -0.007 2.465 -0.014 3.735 -0.021 C5.105 -0.019 6.476 -0.017 7.846 -0.014 C9.299 -0.019 10.753 -0.024 12.207 -0.03 C16.207 -0.044 20.208 -0.046 24.208 -0.045 C28.52 -0.047 32.833 -0.06 37.145 -0.072 C46.577 -0.094 56.008 -0.102 65.44 -0.107 C71.329 -0.111 77.217 -0.117 83.105 -0.124 C99.406 -0.144 115.707 -0.16 132.008 -0.163 C132.529 -0.163 132.529 -0.163 135.17 -0.164 C137.285 -0.164 139.4 -0.165 141.515 -0.165 C142.04 -0.165 142.04 -0.165 144.697 -0.165 C145.749 -0.166 146.8 -0.166 147.883 -0.166 C164.92 -0.17 181.957 -0.197 198.994 -0.234 C216.482 -0.272 233.97 -0.291 251.459 -0.292 C261.279 -0.292 271.099 -0.301 280.919 -0.33 C289.281 -0.354 297.643 -0.362 306.005 -0.346 C310.272 -0.339 314.538 -0.34 318.804 -0.363 C322.711 -0.383 326.618 -0.381 330.525 -0.36 C331.937 -0.357 333.349 -0.361 334.761 -0.376 C342.748 -0.451 348.875 -0.236 355.017 5.26 C360.864 11.569 361.475 16.43 361.326 24.908 C360.713 31.562 356.677 34.837 351.896 38.963 C347.725 41.842 343.99 42.511 338.979 42.52 C337.76 42.527 336.54 42.534 335.284 42.542 C333.934 42.539 332.584 42.537 331.234 42.534 C329.797 42.539 328.36 42.544 326.924 42.55 C322.975 42.564 319.027 42.566 315.078 42.565 C310.819 42.567 306.561 42.58 302.303 42.592 C292.99 42.615 283.678 42.622 274.366 42.628 C268.551 42.631 262.736 42.637 256.921 42.645 C240.818 42.664 224.715 42.68 208.613 42.683 C207.582 42.684 206.552 42.684 205.49 42.684 C203.401 42.684 201.312 42.685 199.223 42.685 C198.704 42.685 198.704 42.685 196.08 42.686 C195.561 42.686 195.561 42.686 192.934 42.686 C176.112 42.69 159.29 42.717 142.468 42.754 C125.194 42.792 107.921 42.812 90.647 42.812 C80.95 42.812 71.252 42.821 61.555 42.85 C53.297 42.874 45.039 42.882 36.781 42.867 C32.569 42.859 28.358 42.86 24.146 42.883 C20.286 42.904 16.427 42.901 12.567 42.88 C11.175 42.877 9.782 42.882 8.39 42.896 C-0.077 42.977 -6.945 42.302 -13.983 37.26 C-16.044 35.071 -17.572 32.91 -18.983 30.26 C-19.416 29.476 -19.849 28.693 -20.295 27.885 C-21.968 21.497 -21.57 15.905 -18.323 10.116 C-13.659 3.657 -7.966 0.015 0 0 Z " fill="#4DAE9B" transform="translate(319.9827766418457,713.7399377822876)"/>
<path d="M0 0 C0.497 -0.024 0.497 -0.024 3.012 -0.148 C12.045 1.284 18.415 9.054 24.562 15.251 C25.578 16.263 26.594 17.275 27.61 18.287 C30.389 21.054 33.157 23.831 35.925 26.61 C38.916 29.61 41.916 32.601 44.914 35.593 C50.781 41.451 56.64 47.316 62.495 53.184 C69.314 60.016 76.141 66.841 82.968 73.666 C95.145 85.84 107.315 98.022 119.481 110.208 C131.29 122.035 143.105 133.857 154.926 145.673 C167.8 158.541 180.671 171.412 193.537 184.289 C194.908 185.661 196.279 187.033 197.65 188.406 C198.324 189.081 198.999 189.756 199.694 190.452 C204.452 195.213 209.212 199.973 213.973 204.732 C219.77 210.527 225.564 216.326 231.353 222.13 C234.308 225.092 237.264 228.052 240.225 231.008 C242.933 233.713 245.637 236.421 248.336 239.134 C249.316 240.116 250.296 241.096 251.279 242.075 C252.612 243.402 253.937 244.736 255.262 246.071 C256.002 246.811 256.741 247.551 257.502 248.313 C261.846 253.261 261.74 257.71 261.625 264.109 C261.05 270.12 258.854 274.245 254.375 278.25 C249.788 281.433 246.086 282.688 240.5 282.812 C239.524 282.852 238.548 282.892 237.543 282.934 C228.599 281.387 222.273 273.766 216.152 267.609 C215.146 266.608 214.14 265.608 213.133 264.608 C210.381 261.873 207.639 259.129 204.899 256.383 C201.936 253.417 198.965 250.461 195.995 247.503 C190.183 241.713 184.38 235.914 178.58 230.112 C173.865 225.396 169.148 220.683 164.429 215.971 C163.068 214.612 161.708 213.254 160.347 211.896 C159.67 211.219 158.993 210.543 158.295 209.847 C145.497 197.067 132.708 184.277 119.923 171.485 C108.229 159.786 96.522 148.1 84.809 136.42 C72.776 124.421 60.752 112.412 48.738 100.393 C41.996 93.649 35.25 86.908 28.494 80.176 C22.743 74.447 17.002 68.709 11.271 62.96 C8.348 60.028 5.422 57.1 2.484 54.183 C-0.208 51.51 -2.887 48.826 -5.558 46.133 C-6.98 44.705 -8.414 43.289 -9.848 41.873 C-15.794 35.845 -21.265 29.29 -21.25 20.375 C-20.959 14.129 -18.521 8.973 -13.902 4.738 C-9.311 1.336 -5.618 0.187 0 0 Z " fill="#4BAE9A" transform="translate(439.6875,417.625)"/>
<path d="M0 0 C0.994 -0.037 1.988 -0.075 3.012 -0.113 C12.427 1.101 18.183 7.616 24.555 14.054 C25.57 15.065 26.585 16.075 27.602 17.084 C30.38 19.847 33.146 22.623 35.91 25.402 C38.897 28.4 41.896 31.387 44.894 34.375 C50.759 40.227 56.613 46.089 62.464 51.954 C69.278 58.785 76.102 65.606 82.926 72.427 C95.101 84.596 107.267 96.775 119.427 108.96 C131.226 120.783 143.034 132.598 154.85 144.404 C167.72 157.263 180.585 170.126 193.443 182.998 C194.813 184.37 196.184 185.742 197.555 187.114 C198.229 187.79 198.904 188.465 199.598 189.16 C204.352 193.919 209.109 198.674 213.867 203.427 C219.664 209.219 225.455 215.017 231.24 220.821 C234.191 223.783 237.145 226.742 240.106 229.694 C242.815 232.397 245.518 235.106 248.215 237.822 C249.192 238.803 250.172 239.781 251.154 240.757 C252.49 242.084 253.815 243.421 255.139 244.759 C255.878 245.499 256.617 246.239 257.378 247.001 C261.923 252.432 262.987 257.298 262.781 264.207 C261.851 270.372 259.011 275.036 254.262 279.043 C248.881 282.455 243.581 283.42 237.312 282.312 C229.312 280.21 224.728 275.431 219.032 269.66 C218.013 268.646 216.994 267.634 215.973 266.623 C213.181 263.849 210.404 261.061 207.63 258.269 C204.633 255.258 201.62 252.261 198.61 249.263 C192.719 243.39 186.841 237.504 180.968 231.613 C176.194 226.825 171.416 222.043 166.634 217.264 C165.953 216.583 165.272 215.903 164.571 215.202 C163.187 213.82 161.804 212.438 160.421 211.056 C148.194 198.837 135.979 186.606 123.771 174.368 C111.926 162.494 100.069 150.631 88.202 138.778 C75.277 125.87 62.359 112.956 49.452 100.031 C48.075 98.653 46.699 97.275 45.322 95.897 C44.645 95.218 43.968 94.54 43.27 93.842 C38.498 89.064 33.722 84.291 28.943 79.519 C23.121 73.704 17.305 67.882 11.499 62.051 C8.537 59.076 5.571 56.104 2.597 53.141 C-0.126 50.428 -2.84 47.706 -5.546 44.976 C-6.527 43.991 -7.51 43.009 -8.497 42.031 C-14.371 36.206 -18.928 31.675 -20.121 23.25 C-20.13 16.648 -19.791 12.573 -15.688 7.312 C-10.719 2.344 -7.173 0.175 0 0 Z " fill="#4BAE9A" transform="translate(778.6875,761.6875)"/>
</svg>
